<?xml version="1.0" standalone="no"?>
<!DOCTYPE svg PUBLIC "-//W3C//DTD SVG 20010904//EN"
 "http://www.w3.org/TR/2001/REC-SVG-20010904/DTD/svg10.dtd">
<svg version="1.0" xmlns="http://www.w3.org/2000/svg"
 width="500.000000pt" height="500.000000pt" viewBox="0 0 500.000000 500.000000"
 preserveAspectRatio="xMidYMid meet">

<g transform="translate(0.000000,500.000000) scale(0.100000,-0.100000)"
fill="#000000" stroke="none">
<path d="M2396 3783 c-2 -10 -12 -54 -21 -98 -9 -44 -19 -88 -22 -97 -2 -10 0
-18 6 -18 5 0 12 14 16 30 6 28 10 30 51 30 38 0 44 -3 50 -25 3 -14 10 -25
15 -25 13 0 12 3 -28 116 -36 99 -56 125 -67 87z m42 -73 c20 -58 20 -60 2
-60 -10 0 -26 -3 -36 -7 -15 -6 -16 -1 -10 45 6 50 15 82 21 82 2 0 12 -27 23
-60z"/>
<path d="M2770 3769 c0 -3 -13 -50 -30 -105 -32 -107 -34 -118 -21 -110 4 3
18 42 31 86 13 44 26 78 29 74 3 -3 15 -46 26 -96 11 -50 25 -93 31 -95 6 -2
23 37 38 88 16 51 30 99 33 106 3 7 1 13 -4 13 -6 0 -20 -35 -33 -77 -12 -43
-26 -82 -30 -86 -4 -5 -15 32 -25 82 -9 50 -23 98 -31 108 -7 10 -14 15 -14
12z"/>
<path d="M2175 3748 c-3 -7 -6 -53 -7 -103 l-3 -90 -59 73 c-58 72 -94 94 -80
50 25 -82 67 -188 75 -188 5 0 -5 37 -21 82 -16 46 -27 84 -25 86 1 2 27 -28
56 -67 30 -39 59 -70 66 -71 9 0 13 28 15 92 l3 92 26 -74 c14 -41 30 -75 36
-77 5 -2 -7 44 -26 102 -34 100 -46 120 -56 93z"/>
<path d="M3010 3559 c-47 -42 -81 -81 -77 -85 4 -4 17 2 29 14 l22 21 37 -21
c34 -19 36 -23 29 -49 -5 -16 -5 -31 0 -34 5 -3 14 11 19 32 43 164 48 192 37
196 -6 3 -49 -31 -96 -74z m70 -8 c-14 -61 -23 -68 -57 -46 l-25 17 43 44 c23
24 45 42 47 39 2 -2 -1 -27 -8 -54z"/>
<path d="M1877 3624 c-3 -3 20 -47 51 -97 67 -110 61 -102 68 -94 5 4 -103
197 -111 197 -1 0 -4 -3 -8 -6z"/>
<path d="M1718 3508 c-27 -22 -48 -45 -48 -51 0 -5 8 -3 18 6 10 10 23 17 28
17 5 0 39 -34 74 -76 35 -41 66 -71 68 -65 2 6 -24 42 -57 80 -34 38 -61 72
-61 77 0 4 7 16 17 26 31 34 8 26 -39 -14z"/>
<path d="M3216 3440 c-60 -56 -74 -91 -50 -127 10 -16 17 -37 16 -48 -3 -19
-2 -19 12 -1 8 10 19 15 25 12 33 -21 141 86 141 139 0 25 -46 65 -75 65 -16
0 -42 -15 -69 -40z m114 -1 c18 -32 5 -62 -45 -108 -56 -52 -90 -57 -65 -10 7
12 7 19 1 19 -5 0 -13 -10 -16 -21 -6 -19 -9 -20 -22 -6 -23 23 -8 65 38 109
46 44 91 51 109 17z"/>
<path d="M1530 3307 c0 -20 132 -187 143 -180 4 3 1 13 -7 22 -21 23 -20 36 5
71 19 24 25 27 47 19 22 -8 43 -5 31 5 -7 6 -199 76 -209 76 -6 0 -10 -6 -10
-13z m98 -34 c48 -17 50 -22 22 -54 l-20 -24 -20 25 c-11 14 -30 38 -42 54
-21 28 -21 29 -2 22 10 -5 38 -15 62 -23z"/>
<path d="M3393 3214 c-69 -77 -85 -104 -61 -104 25 -1 218 55 218 62 0 13 -16
10 -107 -18 -46 -14 -87 -23 -91 -20 -3 4 19 32 49 64 68 71 85 92 71 92 -6 0
-41 -34 -79 -76z"/>
<path d="M1411 3094 c-12 -26 -20 -52 -19 -56 5 -13 179 -89 192 -85 6 2 -9
14 -34 27 -25 12 -46 24 -48 25 -2 2 4 17 12 34 18 35 19 41 7 41 -5 0 -15
-16 -21 -35 -6 -19 -13 -35 -15 -35 -8 0 -75 31 -75 35 0 2 7 23 16 45 23 58
10 61 -15 4z"/>
<path d="M3495 3003 c-99 -40 -101 -41 -93 -48 6 -6 188 62 203 76 18 18 -20
8 -110 -28z"/>
<path d="M3607 2585 c-177 -142 -392 -220 -692 -250 -243 -24 -388 -69 -511
-158 l-50 -36 -75 33 c-40 18 -131 62 -201 99 -139 72 -353 156 -463 180 -83
19 -262 32 -299 23 -56 -14 -21 -23 107 -29 72 -3 161 -13 197 -22 113 -27
310 -105 473 -187 214 -107 273 -128 387 -137 52 -5 98 -7 101 -5 3 2 100 6
216 9 362 9 587 -33 753 -139 94 -61 90 -59 90 -43 0 27 -209 147 -255 147
-23 0 -18 17 8 24 12 3 69 6 127 6 108 1 170 15 178 39 3 10 0 12 -14 7 -36
-14 -129 -26 -207 -26 -45 0 -92 -6 -112 -15 -30 -12 -45 -12 -108 0 -39 7
-107 16 -149 20 -161 15 -62 44 187 55 165 7 201 12 275 35 104 33 140 51 140
70 0 11 -12 8 -53 -10 -86 -40 -203 -65 -302 -65 -171 -1 -283 -17 -339 -48
-48 -27 -60 -29 -209 -36 -175 -7 -189 -1 -105 42 45 23 99 33 361 67 71 9
141 20 155 25 15 4 47 13 72 21 173 49 410 183 410 231 0 14 -12 8 -56 -27
-30 -25 -99 -67 -152 -94 -175 -87 -304 -121 -537 -142 -187 -16 -306 -55
-336 -110 -10 -20 -18 -21 -109 -17 -55 2 -103 7 -107 12 -18 18 111 88 232
125 77 24 159 37 315 51 253 23 533 131 684 264 74 64 51 74 -27 11z"/>
<path d="M1303 2354 c-50 -11 -18 -20 75 -21 105 -1 271 -34 387 -78 35 -13
151 -71 257 -129 107 -58 218 -114 248 -124 80 -28 214 -41 485 -48 309 -7
543 -38 678 -89 50 -19 104 -44 120 -56 16 -11 31 -18 35 -15 20 20 -111 88
-231 120 -168 45 -283 58 -617 65 -299 7 -320 9 -415 35 -117 32 -213 75 -322
145 -121 77 -237 127 -374 161 -118 30 -273 45 -326 34z"/>
<path d="M1290 2195 c0 -12 14 -15 70 -15 38 0 89 -4 112 -10 24 -5 79 -17
123 -25 61 -11 112 -31 225 -89 252 -128 382 -177 550 -206 36 -7 238 -16 450
-20 417 -9 508 -19 641 -76 73 -30 105 -32 69 -4 -32 25 -118 54 -245 81 -88
19 -148 22 -485 29 -264 6 -410 13 -465 23 -132 24 -260 72 -460 172 -190 95
-239 113 -396 140 -113 20 -189 20 -189 0z"/>
<path d="M1320 2041 c0 -7 26 -11 74 -11 91 0 227 -23 302 -51 l57 -22 -24
-18 c-56 -42 -108 -59 -210 -69 -118 -12 -145 -18 -133 -30 14 -14 210 9 269
31 31 11 69 32 87 47 l31 26 53 -29 c29 -17 55 -34 56 -40 2 -5 -25 -25 -59
-43 -47 -24 -90 -37 -185 -52 -144 -24 -200 -39 -195 -54 3 -6 11 -9 18 -8 15
4 105 22 241 48 78 15 135 39 198 85 13 9 28 4 70 -22 30 -18 57 -34 59 -36
10 -7 -74 -83 -120 -107 -28 -16 -99 -37 -170 -52 -128 -27 -189 -48 -189 -64
0 -14 10 -13 61 6 24 8 89 24 144 35 55 11 123 30 150 43 51 23 113 75 132
110 11 19 13 19 89 -11 44 -17 80 -38 82 -46 7 -35 -164 -135 -337 -197 -126
-45 -188 -77 -173 -92 5 -5 28 2 56 18 26 14 66 32 89 39 23 7 85 30 137 51
93 36 98 37 255 41 139 4 179 1 312 -21 170 -29 311 -64 523 -131 80 -25 153
-45 162 -45 40 0 14 17 -59 39 -43 13 -127 39 -188 57 -292 90 -463 121 -703
131 l-153 6 45 30 c25 16 46 33 46 37 0 4 13 13 29 19 21 9 64 10 172 2 79 -6
203 -13 274 -16 154 -7 210 -21 465 -115 223 -83 204 -77 208 -67 3 10 -305
137 -393 162 -30 9 -55 19 -55 22 0 3 64 3 143 0 148 -6 216 -22 328 -77 30
-14 54 -20 65 -16 17 7 16 9 -9 22 -16 9 -72 31 -124 50 -127 46 -219 54 -547
47 -282 -6 -386 1 -526 39 -88 24 -272 105 -333 146 -63 44 -201 112 -271 134
-73 24 -326 38 -326 19z"/>
<path d="M2150 1423 c-110 -18 -328 -99 -312 -115 5 -5 32 2 63 16 170 75 369
101 583 75 126 -15 213 -34 419 -90 129 -36 183 -46 195 -39 9 5 14 10 10 10
-3 0 -98 25 -210 55 -280 77 -395 95 -576 94 -81 -1 -158 -4 -172 -6z"/>
<path d="M2080 1299 c-90 -23 -130 -38 -130 -50 0 -13 22 -11 70 6 23 8 85 22
138 31 142 25 275 16 437 -29 144 -39 324 -65 371 -52 23 6 2 12 -101 26 -71
9 -195 33 -274 53 -133 33 -155 36 -290 35 -111 0 -164 -5 -221 -20z"/>
</g>
</svg>
