<svg xmlns="http://www.w3.org/2000/svg" xmlns:xlink="http://www.w3.org/1999/xlink" width="500" zoomAndPan="magnify" viewBox="0 0 375 374.999991" height="500" preserveAspectRatio="xMidYMid meet" version="1.0"><defs><g/><clipPath id="9fc4f8ec5e"><path d="M 42 234 L 323 234 L 323 323 L 42 323 Z M 42 234 " clip-rule="nonzero"/></clipPath><clipPath id="d270a5ab43"><path d="M 290.109375 99.226562 C 293.46875 102.589844 296.65625 106.105469 299.671875 109.777344 C 302.6875 113.453125 305.515625 117.265625 308.15625 121.21875 C 310.796875 125.167969 313.238281 129.242188 315.476562 133.433594 C 317.71875 137.625 319.746094 141.914062 321.566406 146.304688 C 323.382812 150.695312 324.984375 155.164062 326.363281 159.714844 C 327.742188 164.261719 328.894531 168.867188 329.824219 173.527344 C 330.75 178.1875 331.445312 182.882812 331.914062 187.613281 C 332.378906 192.34375 332.613281 197.085938 332.613281 201.835938 C 332.613281 206.589844 332.378906 211.332031 331.914062 216.0625 C 331.445312 220.789062 330.75 225.484375 329.824219 230.148438 C 328.894531 234.808594 327.742188 239.414062 326.363281 243.960938 C 324.984375 248.507812 323.382812 252.980469 321.566406 257.371094 C 319.746094 261.761719 317.71875 266.050781 315.476562 270.242188 C 313.238281 274.433594 310.796875 278.503906 308.15625 282.457031 C 305.515625 286.410156 302.6875 290.222656 299.671875 293.894531 C 296.65625 297.570312 293.46875 301.085938 290.109375 304.449219 C 286.75 307.808594 283.230469 310.996094 279.558594 314.011719 C 275.882812 317.027344 272.070312 319.851562 268.121094 322.492188 C 264.167969 325.132812 260.097656 327.574219 255.90625 329.816406 C 251.714844 332.054688 247.421875 334.085938 243.03125 335.902344 C 238.640625 337.722656 234.171875 339.320312 229.621094 340.703125 C 225.074219 342.082031 220.46875 343.234375 215.808594 344.160156 C 211.148438 345.089844 206.453125 345.785156 201.722656 346.25 C 196.992188 346.714844 192.25 346.949219 187.5 346.949219 C 182.746094 346.949219 178.003906 346.714844 173.277344 346.25 C 168.546875 345.785156 163.851562 345.089844 159.1875 344.160156 C 154.527344 343.234375 149.921875 342.082031 145.375 340.703125 C 140.828125 339.320312 136.359375 337.722656 131.96875 335.902344 C 127.574219 334.085938 123.285156 332.054688 119.09375 329.816406 C 114.902344 327.574219 110.832031 325.132812 106.878906 322.492188 C 102.925781 319.851562 99.113281 317.027344 95.441406 314.011719 C 91.765625 310.996094 88.25 307.808594 84.890625 304.449219 C 81.527344 301.085938 78.339844 297.570312 75.324219 293.894531 C 72.3125 290.222656 69.484375 286.410156 66.84375 282.457031 C 64.203125 278.503906 61.761719 274.433594 59.519531 270.242188 C 57.28125 266.050781 55.25 261.761719 53.433594 257.371094 C 51.613281 252.980469 50.015625 248.507812 48.636719 243.960938 C 47.253906 239.414062 46.101562 234.808594 45.175781 230.148438 C 44.246094 225.484375 43.550781 220.789062 43.085938 216.0625 C 42.621094 211.332031 42.386719 206.589844 42.386719 201.835938 C 42.386719 197.085938 42.621094 192.34375 43.085938 187.613281 C 43.550781 182.882812 44.246094 178.1875 45.175781 173.527344 C 46.101562 168.867188 47.253906 164.261719 48.636719 159.714844 C 50.015625 155.164062 51.613281 150.695312 53.433594 146.304688 C 55.25 141.914062 57.28125 137.625 59.519531 133.433594 C 61.761719 129.242188 64.203125 125.167969 66.84375 121.21875 C 69.484375 117.265625 72.3125 113.453125 75.324219 109.777344 C 78.339844 106.105469 81.527344 102.589844 84.890625 99.226562 C 88.25 95.867188 91.765625 92.679688 95.441406 89.664062 C 99.113281 86.648438 102.925781 83.820312 106.878906 81.179688 C 110.832031 78.539062 114.902344 76.101562 119.09375 73.859375 C 123.285156 71.621094 127.574219 69.589844 131.96875 67.769531 C 136.359375 65.953125 140.828125 64.351562 145.375 62.972656 C 149.921875 61.59375 154.527344 60.441406 159.1875 59.511719 C 163.851562 58.585938 168.546875 57.890625 173.277344 57.421875 C 178.003906 56.957031 182.746094 56.726562 187.5 56.726562 C 192.25 56.726562 196.992188 56.957031 201.722656 57.421875 C 206.453125 57.890625 211.148438 58.585938 215.808594 59.511719 C 220.46875 60.441406 225.074219 61.59375 229.621094 62.972656 C 234.171875 64.351562 238.640625 65.953125 243.03125 67.769531 C 247.421875 69.589844 251.714844 71.621094 255.90625 73.859375 C 260.097656 76.101562 264.167969 78.539062 268.121094 81.179688 C 272.070312 83.820312 275.882812 86.648438 279.558594 89.664062 C 283.230469 92.679688 286.75 95.867188 290.109375 99.226562 Z M 290.109375 99.226562 " clip-rule="nonzero"/></clipPath><clipPath id="63c67def08"><path d="M 42 156.789062 L 333 156.789062 L 333 253 L 42 253 Z M 42 156.789062 " clip-rule="nonzero"/></clipPath><clipPath id="ebaf85cd1a"><path d="M 290.109375 99.226562 C 293.46875 102.589844 296.65625 106.105469 299.671875 109.777344 C 302.6875 113.453125 305.515625 117.265625 308.15625 121.21875 C 310.796875 125.167969 313.238281 129.242188 315.476562 133.433594 C 317.71875 137.625 319.746094 141.914062 321.566406 146.304688 C 323.382812 150.695312 324.984375 155.164062 326.363281 159.714844 C 327.742188 164.261719 328.894531 168.867188 329.824219 173.527344 C 330.75 178.1875 331.445312 182.882812 331.914062 187.613281 C 332.378906 192.34375 332.613281 197.085938 332.613281 201.835938 C 332.613281 206.589844 332.378906 211.332031 331.914062 216.0625 C 331.445312 220.789062 330.75 225.484375 329.824219 230.148438 C 328.894531 234.808594 327.742188 239.414062 326.363281 243.960938 C 324.984375 248.507812 323.382812 252.980469 321.566406 257.371094 C 319.746094 261.761719 317.71875 266.050781 315.476562 270.242188 C 313.238281 274.433594 310.796875 278.503906 308.15625 282.457031 C 305.515625 286.410156 302.6875 290.222656 299.671875 293.894531 C 296.65625 297.570312 293.46875 301.085938 290.109375 304.449219 C 286.75 307.808594 283.230469 310.996094 279.558594 314.011719 C 275.882812 317.027344 272.070312 319.851562 268.121094 322.492188 C 264.167969 325.132812 260.097656 327.574219 255.90625 329.816406 C 251.714844 332.054688 247.421875 334.085938 243.03125 335.902344 C 238.640625 337.722656 234.171875 339.320312 229.621094 340.703125 C 225.074219 342.082031 220.46875 343.234375 215.808594 344.160156 C 211.148438 345.089844 206.453125 345.785156 201.722656 346.25 C 196.992188 346.714844 192.25 346.949219 187.5 346.949219 C 182.746094 346.949219 178.003906 346.714844 173.277344 346.25 C 168.546875 345.785156 163.851562 345.089844 159.1875 344.160156 C 154.527344 343.234375 149.921875 342.082031 145.375 340.703125 C 140.828125 339.320312 136.359375 337.722656 131.96875 335.902344 C 127.574219 334.085938 123.285156 332.054688 119.09375 329.816406 C 114.902344 327.574219 110.832031 325.132812 106.878906 322.492188 C 102.925781 319.851562 99.113281 317.027344 95.441406 314.011719 C 91.765625 310.996094 88.25 307.808594 84.890625 304.449219 C 81.527344 301.085938 78.339844 297.570312 75.324219 293.894531 C 72.3125 290.222656 69.484375 286.410156 66.84375 282.457031 C 64.203125 278.503906 61.761719 274.433594 59.519531 270.242188 C 57.28125 266.050781 55.25 261.761719 53.433594 257.371094 C 51.613281 252.980469 50.015625 248.507812 48.636719 243.960938 C 47.253906 239.414062 46.101562 234.808594 45.175781 230.148438 C 44.246094 225.484375 43.550781 220.789062 43.085938 216.0625 C 42.621094 211.332031 42.386719 206.589844 42.386719 201.835938 C 42.386719 197.085938 42.621094 192.34375 43.085938 187.613281 C 43.550781 182.882812 44.246094 178.1875 45.175781 173.527344 C 46.101562 168.867188 47.253906 164.261719 48.636719 159.714844 C 50.015625 155.164062 51.613281 150.695312 53.433594 146.304688 C 55.25 141.914062 57.28125 137.625 59.519531 133.433594 C 61.761719 129.242188 64.203125 125.167969 66.84375 121.21875 C 69.484375 117.265625 72.3125 113.453125 75.324219 109.777344 C 78.339844 106.105469 81.527344 102.589844 84.890625 99.226562 C 88.25 95.867188 91.765625 92.679688 95.441406 89.664062 C 99.113281 86.648438 102.925781 83.820312 106.878906 81.179688 C 110.832031 78.539062 114.902344 76.101562 119.09375 73.859375 C 123.285156 71.621094 127.574219 69.589844 131.96875 67.769531 C 136.359375 65.953125 140.828125 64.351562 145.375 62.972656 C 149.921875 61.59375 154.527344 60.441406 159.1875 59.511719 C 163.851562 58.585938 168.546875 57.890625 173.277344 57.421875 C 178.003906 56.957031 182.746094 56.726562 187.5 56.726562 C 192.25 56.726562 196.992188 56.957031 201.722656 57.421875 C 206.453125 57.890625 211.148438 58.585938 215.808594 59.511719 C 220.46875 60.441406 225.074219 61.59375 229.621094 62.972656 C 234.171875 64.351562 238.640625 65.953125 243.03125 67.769531 C 247.421875 69.589844 251.714844 71.621094 255.90625 73.859375 C 260.097656 76.101562 264.167969 78.539062 268.121094 81.179688 C 272.070312 83.820312 275.882812 86.648438 279.558594 89.664062 C 283.230469 92.679688 286.75 95.867188 290.109375 99.226562 Z M 290.109375 99.226562 " clip-rule="nonzero"/></clipPath><clipPath id="4f2688adcc"><path d="M 42 197 L 318 197 L 318 267 L 42 267 Z M 42 197 " clip-rule="nonzero"/></clipPath><clipPath id="67a577277d"><path d="M 290.109375 99.226562 C 293.46875 102.589844 296.65625 106.105469 299.671875 109.777344 C 302.6875 113.453125 305.515625 117.265625 308.15625 121.21875 C 310.796875 125.167969 313.238281 129.242188 315.476562 133.433594 C 317.71875 137.625 319.746094 141.914062 321.566406 146.304688 C 323.382812 150.695312 324.984375 155.164062 326.363281 159.714844 C 327.742188 164.261719 328.894531 168.867188 329.824219 173.527344 C 330.75 178.1875 331.445312 182.882812 331.914062 187.613281 C 332.378906 192.34375 332.613281 197.085938 332.613281 201.835938 C 332.613281 206.589844 332.378906 211.332031 331.914062 216.0625 C 331.445312 220.789062 330.75 225.484375 329.824219 230.148438 C 328.894531 234.808594 327.742188 239.414062 326.363281 243.960938 C 324.984375 248.507812 323.382812 252.980469 321.566406 257.371094 C 319.746094 261.761719 317.71875 266.050781 315.476562 270.242188 C 313.238281 274.433594 310.796875 278.503906 308.15625 282.457031 C 305.515625 286.410156 302.6875 290.222656 299.671875 293.894531 C 296.65625 297.570312 293.46875 301.085938 290.109375 304.449219 C 286.75 307.808594 283.230469 310.996094 279.558594 314.011719 C 275.882812 317.027344 272.070312 319.851562 268.121094 322.492188 C 264.167969 325.132812 260.097656 327.574219 255.90625 329.816406 C 251.714844 332.054688 247.421875 334.085938 243.03125 335.902344 C 238.640625 337.722656 234.171875 339.320312 229.621094 340.703125 C 225.074219 342.082031 220.46875 343.234375 215.808594 344.160156 C 211.148438 345.089844 206.453125 345.785156 201.722656 346.25 C 196.992188 346.714844 192.25 346.949219 187.5 346.949219 C 182.746094 346.949219 178.003906 346.714844 173.277344 346.25 C 168.546875 345.785156 163.851562 345.089844 159.1875 344.160156 C 154.527344 343.234375 149.921875 342.082031 145.375 340.703125 C 140.828125 339.320312 136.359375 337.722656 131.96875 335.902344 C 127.574219 334.085938 123.285156 332.054688 119.09375 329.816406 C 114.902344 327.574219 110.832031 325.132812 106.878906 322.492188 C 102.925781 319.851562 99.113281 317.027344 95.441406 314.011719 C 91.765625 310.996094 88.25 307.808594 84.890625 304.449219 C 81.527344 301.085938 78.339844 297.570312 75.324219 293.894531 C 72.3125 290.222656 69.484375 286.410156 66.84375 282.457031 C 64.203125 278.503906 61.761719 274.433594 59.519531 270.242188 C 57.28125 266.050781 55.25 261.761719 53.433594 257.371094 C 51.613281 252.980469 50.015625 248.507812 48.636719 243.960938 C 47.253906 239.414062 46.101562 234.808594 45.175781 230.148438 C 44.246094 225.484375 43.550781 220.789062 43.085938 216.0625 C 42.621094 211.332031 42.386719 206.589844 42.386719 201.835938 C 42.386719 197.085938 42.621094 192.34375 43.085938 187.613281 C 43.550781 182.882812 44.246094 178.1875 45.175781 173.527344 C 46.101562 168.867188 47.253906 164.261719 48.636719 159.714844 C 50.015625 155.164062 51.613281 150.695312 53.433594 146.304688 C 55.25 141.914062 57.28125 137.625 59.519531 133.433594 C 61.761719 129.242188 64.203125 125.167969 66.84375 121.21875 C 69.484375 117.265625 72.3125 113.453125 75.324219 109.777344 C 78.339844 106.105469 81.527344 102.589844 84.890625 99.226562 C 88.25 95.867188 91.765625 92.679688 95.441406 89.664062 C 99.113281 86.648438 102.925781 83.820312 106.878906 81.179688 C 110.832031 78.539062 114.902344 76.101562 119.09375 73.859375 C 123.285156 71.621094 127.574219 69.589844 131.96875 67.769531 C 136.359375 65.953125 140.828125 64.351562 145.375 62.972656 C 149.921875 61.59375 154.527344 60.441406 159.1875 59.511719 C 163.851562 58.585938 168.546875 57.890625 173.277344 57.421875 C 178.003906 56.957031 182.746094 56.726562 187.5 56.726562 C 192.25 56.726562 196.992188 56.957031 201.722656 57.421875 C 206.453125 57.890625 211.148438 58.585938 215.808594 59.511719 C 220.46875 60.441406 225.074219 61.59375 229.621094 62.972656 C 234.171875 64.351562 238.640625 65.953125 243.03125 67.769531 C 247.421875 69.589844 251.714844 71.621094 255.90625 73.859375 C 260.097656 76.101562 264.167969 78.539062 268.121094 81.179688 C 272.070312 83.820312 275.882812 86.648438 279.558594 89.664062 C 283.230469 92.679688 286.75 95.867188 290.109375 99.226562 Z M 290.109375 99.226562 " clip-rule="nonzero"/></clipPath><clipPath id="f47211cfdb"><path d="M 42 215 L 314 215 L 314 274 L 42 274 Z M 42 215 " clip-rule="nonzero"/></clipPath><clipPath id="bb9b552b56"><path d="M 290.109375 99.226562 C 293.46875 102.589844 296.65625 106.105469 299.671875 109.777344 C 302.6875 113.453125 305.515625 117.265625 308.15625 121.21875 C 310.796875 125.167969 313.238281 129.242188 315.476562 133.433594 C 317.71875 137.625 319.746094 141.914062 321.566406 146.304688 C 323.382812 150.695312 324.984375 155.164062 326.363281 159.714844 C 327.742188 164.261719 328.894531 168.867188 329.824219 173.527344 C 330.75 178.1875 331.445312 182.882812 331.914062 187.613281 C 332.378906 192.34375 332.613281 197.085938 332.613281 201.835938 C 332.613281 206.589844 332.378906 211.332031 331.914062 216.0625 C 331.445312 220.789062 330.75 225.484375 329.824219 230.148438 C 328.894531 234.808594 327.742188 239.414062 326.363281 243.960938 C 324.984375 248.507812 323.382812 252.980469 321.566406 257.371094 C 319.746094 261.761719 317.71875 266.050781 315.476562 270.242188 C 313.238281 274.433594 310.796875 278.503906 308.15625 282.457031 C 305.515625 286.410156 302.6875 290.222656 299.671875 293.894531 C 296.65625 297.570312 293.46875 301.085938 290.109375 304.449219 C 286.75 307.808594 283.230469 310.996094 279.558594 314.011719 C 275.882812 317.027344 272.070312 319.851562 268.121094 322.492188 C 264.167969 325.132812 260.097656 327.574219 255.90625 329.816406 C 251.714844 332.054688 247.421875 334.085938 243.03125 335.902344 C 238.640625 337.722656 234.171875 339.320312 229.621094 340.703125 C 225.074219 342.082031 220.46875 343.234375 215.808594 344.160156 C 211.148438 345.089844 206.453125 345.785156 201.722656 346.25 C 196.992188 346.714844 192.25 346.949219 187.5 346.949219 C 182.746094 346.949219 178.003906 346.714844 173.277344 346.25 C 168.546875 345.785156 163.851562 345.089844 159.1875 344.160156 C 154.527344 343.234375 149.921875 342.082031 145.375 340.703125 C 140.828125 339.320312 136.359375 337.722656 131.96875 335.902344 C 127.574219 334.085938 123.285156 332.054688 119.09375 329.816406 C 114.902344 327.574219 110.832031 325.132812 106.878906 322.492188 C 102.925781 319.851562 99.113281 317.027344 95.441406 314.011719 C 91.765625 310.996094 88.25 307.808594 84.890625 304.449219 C 81.527344 301.085938 78.339844 297.570312 75.324219 293.894531 C 72.3125 290.222656 69.484375 286.410156 66.84375 282.457031 C 64.203125 278.503906 61.761719 274.433594 59.519531 270.242188 C 57.28125 266.050781 55.25 261.761719 53.433594 257.371094 C 51.613281 252.980469 50.015625 248.507812 48.636719 243.960938 C 47.253906 239.414062 46.101562 234.808594 45.175781 230.148438 C 44.246094 225.484375 43.550781 220.789062 43.085938 216.0625 C 42.621094 211.332031 42.386719 206.589844 42.386719 201.835938 C 42.386719 197.085938 42.621094 192.34375 43.085938 187.613281 C 43.550781 182.882812 44.246094 178.1875 45.175781 173.527344 C 46.101562 168.867188 47.253906 164.261719 48.636719 159.714844 C 50.015625 155.164062 51.613281 150.695312 53.433594 146.304688 C 55.25 141.914062 57.28125 137.625 59.519531 133.433594 C 61.761719 129.242188 64.203125 125.167969 66.84375 121.21875 C 69.484375 117.265625 72.3125 113.453125 75.324219 109.777344 C 78.339844 106.105469 81.527344 102.589844 84.890625 99.226562 C 88.25 95.867188 91.765625 92.679688 95.441406 89.664062 C 99.113281 86.648438 102.925781 83.820312 106.878906 81.179688 C 110.832031 78.539062 114.902344 76.101562 119.09375 73.859375 C 123.285156 71.621094 127.574219 69.589844 131.96875 67.769531 C 136.359375 65.953125 140.828125 64.351562 145.375 62.972656 C 149.921875 61.59375 154.527344 60.441406 159.1875 59.511719 C 163.851562 58.585938 168.546875 57.890625 173.277344 57.421875 C 178.003906 56.957031 182.746094 56.726562 187.5 56.726562 C 192.25 56.726562 196.992188 56.957031 201.722656 57.421875 C 206.453125 57.890625 211.148438 58.585938 215.808594 59.511719 C 220.46875 60.441406 225.074219 61.59375 229.621094 62.972656 C 234.171875 64.351562 238.640625 65.953125 243.03125 67.769531 C 247.421875 69.589844 251.714844 71.621094 255.90625 73.859375 C 260.097656 76.101562 264.167969 78.539062 268.121094 81.179688 C 272.070312 83.820312 275.882812 86.648438 279.558594 89.664062 C 283.230469 92.679688 286.75 95.867188 290.109375 99.226562 Z M 290.109375 99.226562 " clip-rule="nonzero"/></clipPath><clipPath id="b861f6e574"><path d="M 99 307 L 304 307 L 304 335 L 99 335 Z M 99 307 " clip-rule="nonzero"/></clipPath><clipPath id="8897ee64bf"><path d="M 290.109375 99.226562 C 293.46875 102.589844 296.65625 106.105469 299.671875 109.777344 C 302.6875 113.453125 305.515625 117.265625 308.15625 121.21875 C 310.796875 125.167969 313.238281 129.242188 315.476562 133.433594 C 317.71875 137.625 319.746094 141.914062 321.566406 146.304688 C 323.382812 150.695312 324.984375 155.164062 326.363281 159.714844 C 327.742188 164.261719 328.894531 168.867188 329.824219 173.527344 C 330.75 178.1875 331.445312 182.882812 331.914062 187.613281 C 332.378906 192.34375 332.613281 197.085938 332.613281 201.835938 C 332.613281 206.589844 332.378906 211.332031 331.914062 216.0625 C 331.445312 220.789062 330.75 225.484375 329.824219 230.148438 C 328.894531 234.808594 327.742188 239.414062 326.363281 243.960938 C 324.984375 248.507812 323.382812 252.980469 321.566406 257.371094 C 319.746094 261.761719 317.71875 266.050781 315.476562 270.242188 C 313.238281 274.433594 310.796875 278.503906 308.15625 282.457031 C 305.515625 286.410156 302.6875 290.222656 299.671875 293.894531 C 296.65625 297.570312 293.46875 301.085938 290.109375 304.449219 C 286.75 307.808594 283.230469 310.996094 279.558594 314.011719 C 275.882812 317.027344 272.070312 319.851562 268.121094 322.492188 C 264.167969 325.132812 260.097656 327.574219 255.90625 329.816406 C 251.714844 332.054688 247.421875 334.085938 243.03125 335.902344 C 238.640625 337.722656 234.171875 339.320312 229.621094 340.703125 C 225.074219 342.082031 220.46875 343.234375 215.808594 344.160156 C 211.148438 345.089844 206.453125 345.785156 201.722656 346.25 C 196.992188 346.714844 192.25 346.949219 187.5 346.949219 C 182.746094 346.949219 178.003906 346.714844 173.277344 346.25 C 168.546875 345.785156 163.851562 345.089844 159.1875 344.160156 C 154.527344 343.234375 149.921875 342.082031 145.375 340.703125 C 140.828125 339.320312 136.359375 337.722656 131.96875 335.902344 C 127.574219 334.085938 123.285156 332.054688 119.09375 329.816406 C 114.902344 327.574219 110.832031 325.132812 106.878906 322.492188 C 102.925781 319.851562 99.113281 317.027344 95.441406 314.011719 C 91.765625 310.996094 88.25 307.808594 84.890625 304.449219 C 81.527344 301.085938 78.339844 297.570312 75.324219 293.894531 C 72.3125 290.222656 69.484375 286.410156 66.84375 282.457031 C 64.203125 278.503906 61.761719 274.433594 59.519531 270.242188 C 57.28125 266.050781 55.25 261.761719 53.433594 257.371094 C 51.613281 252.980469 50.015625 248.507812 48.636719 243.960938 C 47.253906 239.414062 46.101562 234.808594 45.175781 230.148438 C 44.246094 225.484375 43.550781 220.789062 43.085938 216.0625 C 42.621094 211.332031 42.386719 206.589844 42.386719 201.835938 C 42.386719 197.085938 42.621094 192.34375 43.085938 187.613281 C 43.550781 182.882812 44.246094 178.1875 45.175781 173.527344 C 46.101562 168.867188 47.253906 164.261719 48.636719 159.714844 C 50.015625 155.164062 51.613281 150.695312 53.433594 146.304688 C 55.25 141.914062 57.28125 137.625 59.519531 133.433594 C 61.761719 129.242188 64.203125 125.167969 66.84375 121.21875 C 69.484375 117.265625 72.3125 113.453125 75.324219 109.777344 C 78.339844 106.105469 81.527344 102.589844 84.890625 99.226562 C 88.25 95.867188 91.765625 92.679688 95.441406 89.664062 C 99.113281 86.648438 102.925781 83.820312 106.878906 81.179688 C 110.832031 78.539062 114.902344 76.101562 119.09375 73.859375 C 123.285156 71.621094 127.574219 69.589844 131.96875 67.769531 C 136.359375 65.953125 140.828125 64.351562 145.375 62.972656 C 149.921875 61.59375 154.527344 60.441406 159.1875 59.511719 C 163.851562 58.585938 168.546875 57.890625 173.277344 57.421875 C 178.003906 56.957031 182.746094 56.726562 187.5 56.726562 C 192.25 56.726562 196.992188 56.957031 201.722656 57.421875 C 206.453125 57.890625 211.148438 58.585938 215.808594 59.511719 C 220.46875 60.441406 225.074219 61.59375 229.621094 62.972656 C 234.171875 64.351562 238.640625 65.953125 243.03125 67.769531 C 247.421875 69.589844 251.714844 71.621094 255.90625 73.859375 C 260.097656 76.101562 264.167969 78.539062 268.121094 81.179688 C 272.070312 83.820312 275.882812 86.648438 279.558594 89.664062 C 283.230469 92.679688 286.75 95.867188 290.109375 99.226562 Z M 290.109375 99.226562 " clip-rule="nonzero"/></clipPath><clipPath id="3d965d7899"><path d="M 117 321 L 268 321 L 268 337.539062 L 117 337.539062 Z M 117 321 " clip-rule="nonzero"/></clipPath><clipPath id="d0c4ccfd5c"><path d="M 290.109375 99.226562 C 293.46875 102.589844 296.65625 106.105469 299.671875 109.777344 C 302.6875 113.453125 305.515625 117.265625 308.15625 121.21875 C 310.796875 125.167969 313.238281 129.242188 315.476562 133.433594 C 317.71875 137.625 319.746094 141.914062 321.566406 146.304688 C 323.382812 150.695312 324.984375 155.164062 326.363281 159.714844 C 327.742188 164.261719 328.894531 168.867188 329.824219 173.527344 C 330.75 178.1875 331.445312 182.882812 331.914062 187.613281 C 332.378906 192.34375 332.613281 197.085938 332.613281 201.835938 C 332.613281 206.589844 332.378906 211.332031 331.914062 216.0625 C 331.445312 220.789062 330.75 225.484375 329.824219 230.148438 C 328.894531 234.808594 327.742188 239.414062 326.363281 243.960938 C 324.984375 248.507812 323.382812 252.980469 321.566406 257.371094 C 319.746094 261.761719 317.71875 266.050781 315.476562 270.242188 C 313.238281 274.433594 310.796875 278.503906 308.15625 282.457031 C 305.515625 286.410156 302.6875 290.222656 299.671875 293.894531 C 296.65625 297.570312 293.46875 301.085938 290.109375 304.449219 C 286.75 307.808594 283.230469 310.996094 279.558594 314.011719 C 275.882812 317.027344 272.070312 319.851562 268.121094 322.492188 C 264.167969 325.132812 260.097656 327.574219 255.90625 329.816406 C 251.714844 332.054688 247.421875 334.085938 243.03125 335.902344 C 238.640625 337.722656 234.171875 339.320312 229.621094 340.703125 C 225.074219 342.082031 220.46875 343.234375 215.808594 344.160156 C 211.148438 345.089844 206.453125 345.785156 201.722656 346.25 C 196.992188 346.714844 192.25 346.949219 187.5 346.949219 C 182.746094 346.949219 178.003906 346.714844 173.277344 346.25 C 168.546875 345.785156 163.851562 345.089844 159.1875 344.160156 C 154.527344 343.234375 149.921875 342.082031 145.375 340.703125 C 140.828125 339.320312 136.359375 337.722656 131.96875 335.902344 C 127.574219 334.085938 123.285156 332.054688 119.09375 329.816406 C 114.902344 327.574219 110.832031 325.132812 106.878906 322.492188 C 102.925781 319.851562 99.113281 317.027344 95.441406 314.011719 C 91.765625 310.996094 88.25 307.808594 84.890625 304.449219 C 81.527344 301.085938 78.339844 297.570312 75.324219 293.894531 C 72.3125 290.222656 69.484375 286.410156 66.84375 282.457031 C 64.203125 278.503906 61.761719 274.433594 59.519531 270.242188 C 57.28125 266.050781 55.25 261.761719 53.433594 257.371094 C 51.613281 252.980469 50.015625 248.507812 48.636719 243.960938 C 47.253906 239.414062 46.101562 234.808594 45.175781 230.148438 C 44.246094 225.484375 43.550781 220.789062 43.085938 216.0625 C 42.621094 211.332031 42.386719 206.589844 42.386719 201.835938 C 42.386719 197.085938 42.621094 192.34375 43.085938 187.613281 C 43.550781 182.882812 44.246094 178.1875 45.175781 173.527344 C 46.101562 168.867188 47.253906 164.261719 48.636719 159.714844 C 50.015625 155.164062 51.613281 150.695312 53.433594 146.304688 C 55.25 141.914062 57.28125 137.625 59.519531 133.433594 C 61.761719 129.242188 64.203125 125.167969 66.84375 121.21875 C 69.484375 117.265625 72.3125 113.453125 75.324219 109.777344 C 78.339844 106.105469 81.527344 102.589844 84.890625 99.226562 C 88.25 95.867188 91.765625 92.679688 95.441406 89.664062 C 99.113281 86.648438 102.925781 83.820312 106.878906 81.179688 C 110.832031 78.539062 114.902344 76.101562 119.09375 73.859375 C 123.285156 71.621094 127.574219 69.589844 131.96875 67.769531 C 136.359375 65.953125 140.828125 64.351562 145.375 62.972656 C 149.921875 61.59375 154.527344 60.441406 159.1875 59.511719 C 163.851562 58.585938 168.546875 57.890625 173.277344 57.421875 C 178.003906 56.957031 182.746094 56.726562 187.5 56.726562 C 192.25 56.726562 196.992188 56.957031 201.722656 57.421875 C 206.453125 57.890625 211.148438 58.585938 215.808594 59.511719 C 220.46875 60.441406 225.074219 61.59375 229.621094 62.972656 C 234.171875 64.351562 238.640625 65.953125 243.03125 67.769531 C 247.421875 69.589844 251.714844 71.621094 255.90625 73.859375 C 260.097656 76.101562 264.167969 78.539062 268.121094 81.179688 C 272.070312 83.820312 275.882812 86.648438 279.558594 89.664062 C 283.230469 92.679688 286.75 95.867188 290.109375 99.226562 Z M 290.109375 99.226562 " clip-rule="nonzero"/></clipPath></defs><g clip-path="url(#9fc4f8ec5e)"><g clip-path="url(#d270a5ab43)"><path fill="#d46927" d="M 41.453125 234.023438 C 51.058594 234.023438 60.660156 234.023438 70.261719 234.027344 C 70.683594 234.210938 71.109375 234.398438 71.53125 234.582031 C 73.832031 234.984375 76.132812 235.382812 78.429688 235.785156 L 78.691406 235.886719 L 78.972656 235.875 C 80.035156 236.113281 81.097656 236.355469 82.160156 236.59375 L 82.089844 236.554688 C 82.328125 236.667969 82.566406 236.777344 82.804688 236.890625 C 83.226562 236.960938 83.644531 237.027344 84.066406 237.097656 C 85.121094 237.417969 86.179688 237.738281 87.238281 238.054688 C 87.65625 238.148438 88.074219 238.246094 88.488281 238.339844 C 89.71875 238.78125 90.949219 239.222656 92.175781 239.664062 C 94.492188 240.65625 96.808594 241.644531 99.121094 242.636719 C 103.519531 244.972656 107.914062 247.304688 112.3125 249.640625 L 113.53125 250.355469 C 117.449219 252.851562 121.195312 255.699219 125.328125 257.765625 C 132.984375 261.589844 140.871094 264.960938 148.660156 268.519531 L 148.648438 268.5 C 154.730469 270.117188 160.8125 271.738281 166.898438 273.355469 C 167.3125 273.394531 167.730469 273.433594 168.148438 273.472656 C 168.25 273.617188 168.378906 273.644531 168.535156 273.558594 C 175.011719 274.34375 181.476562 275.667969 187.964844 275.808594 C 202.835938 276.125 217.714844 275.867188 232.59375 275.824219 C 233.300781 275.820312 234.011719 275.628906 234.71875 275.527344 C 235.320312 275.480469 235.921875 275.433594 236.523438 275.386719 C 249.097656 275.378906 261.695312 274.894531 274.152344 277.25 C 274.992188 277.46875 275.832031 277.691406 276.671875 277.914062 C 277.296875 278.109375 277.925781 278.304688 278.554688 278.5 C 279.1875 278.703125 279.816406 278.910156 280.445312 279.113281 L 280.457031 279.117188 C 280.863281 279.285156 281.273438 279.453125 281.679688 279.621094 C 281.890625 279.664062 282.105469 279.710938 282.316406 279.753906 C 282.515625 279.859375 282.710938 279.96875 282.910156 280.074219 C 283.339844 280.191406 283.765625 280.304688 284.195312 280.421875 C 284.808594 280.648438 285.417969 280.871094 286.03125 281.097656 L 286.019531 281.070312 C 287.691406 281.765625 289.359375 282.460938 291.03125 283.15625 C 291.453125 283.328125 291.875 283.503906 292.300781 283.675781 C 292.726562 283.867188 293.152344 284.054688 293.578125 284.246094 C 294.636719 284.601562 295.695312 284.960938 296.757812 285.320312 C 296.945312 285.367188 297.136719 285.402344 297.328125 285.425781 C 299.203125 286.472656 301.078125 287.523438 302.949219 288.570312 C 303.535156 289.84375 307.367188 291.0625 303.015625 292.421875 C 300.3125 291.527344 297.609375 290.636719 294.90625 289.742188 L 294.921875 289.761719 C 294.699219 289.597656 294.480469 289.4375 294.257812 289.273438 C 293.804688 289.035156 293.347656 288.796875 292.894531 288.558594 C 291.671875 287.96875 290.453125 287.378906 289.230469 286.792969 C 289.058594 286.6875 288.871094 286.628906 288.667969 286.625 C 288.4375 286.472656 288.207031 286.320312 287.976562 286.167969 C 287.769531 286.121094 287.558594 286.074219 287.351562 286.023438 C 287.152344 285.921875 286.953125 285.820312 286.753906 285.71875 C 284.667969 284.976562 282.585938 284.234375 280.503906 283.492188 C 279.433594 283.117188 278.367188 282.746094 277.300781 282.371094 C 277.101562 282.292969 276.898438 282.253906 276.6875 282.257812 C 276.28125 282.128906 275.875 282 275.46875 281.867188 C 275.058594 281.78125 274.644531 281.691406 274.230469 281.605469 C 273.800781 281.453125 273.367188 281.304688 272.9375 281.15625 C 272.519531 281.105469 272.097656 281.050781 271.679688 281 C 269.785156 280.671875 267.894531 280.34375 266 280.015625 C 264.175781 279.90625 262.347656 279.792969 260.523438 279.679688 C 259.738281 279.523438 258.953125 279.242188 258.167969 279.238281 C 251.460938 279.203125 244.757812 279.214844 238.050781 279.214844 C 238.015625 279.359375 237.984375 279.503906 237.949219 279.648438 C 239.574219 280.0625 241.199219 280.480469 242.824219 280.894531 C 243.015625 280.996094 243.214844 281.035156 243.429688 281.007812 C 243.84375 281.160156 244.253906 281.3125 244.664062 281.464844 L 245.785156 281.703125 C 246.042969 281.839844 246.300781 281.972656 246.558594 282.105469 C 247.070312 282.214844 247.582031 282.320312 248.09375 282.429688 C 248.417969 282.558594 248.742188 282.691406 249.066406 282.824219 C 251.992188 283.894531 254.917969 284.964844 257.84375 286.035156 C 259.515625 286.667969 261.191406 287.300781 262.863281 287.9375 C 263.414062 288.167969 263.96875 288.394531 264.519531 288.625 C 265.855469 289.203125 267.191406 289.777344 268.527344 290.355469 C 269.757812 290.851562 270.992188 291.34375 272.222656 291.851562 C 273.648438 292.4375 275.066406 293.039062 276.488281 293.632812 C 278 294.265625 279.515625 294.898438 281.03125 295.535156 C 281.457031 295.710938 281.882812 295.890625 282.308594 296.070312 C 283.359375 296.46875 284.414062 296.867188 285.464844 297.265625 L 285.652344 297.398438 L 285.882812 297.394531 C 287.195312 297.808594 288.503906 298.226562 289.816406 298.640625 L 289.796875 298.617188 C 293.558594 299.46875 297.320312 300.324219 301.082031 301.175781 L 301.074219 301.148438 C 301.714844 301.285156 302.355469 301.425781 302.996094 301.5625 C 303.828125 301.65625 304.660156 301.746094 305.488281 301.839844 C 306.136719 301.960938 306.78125 302.078125 307.425781 302.199219 C 308.253906 302.25 309.082031 302.296875 309.90625 302.34375 C 312.421875 302.527344 314.941406 302.710938 317.457031 302.890625 C 319.089844 303.140625 320.726562 303.390625 322.363281 303.636719 C 321.976562 304.457031 321.59375 305.277344 321.207031 306.09375 C 320.582031 306.136719 319.957031 306.179688 319.332031 306.222656 L 318.726562 306.269531 C 317.613281 306.394531 316.5 306.515625 315.386719 306.636719 C 315.097656 306.640625 314.808594 306.644531 314.519531 306.644531 C 314 306.609375 313.480469 306.574219 312.960938 306.535156 C 312.828125 306.378906 312.671875 306.347656 312.492188 306.441406 C 310.398438 306.320312 308.300781 306.203125 306.207031 306.082031 C 303.28125 305.636719 300.359375 305.191406 297.4375 304.746094 L 297.457031 304.765625 C 297.019531 304.636719 296.585938 304.507812 296.148438 304.378906 C 295.597656 304.28125 295.046875 304.183594 294.496094 304.085938 L 293.582031 303.859375 C 292.988281 303.761719 292.394531 303.664062 291.800781 303.566406 C 283.480469 300.34375 275.207031 297 266.832031 293.925781 C 257.191406 290.386719 247.46875 287.085938 237.777344 283.683594 C 237.382812 283.617188 236.988281 283.554688 236.59375 283.492188 C 229.617188 281.1875 222.460938 280.390625 215.113281 280.148438 C 200.207031 279.65625 185.285156 279.058594 170.4375 277.742188 C 164.027344 277.171875 157.820312 274.863281 153.414062 281.742188 C 153.300781 281.917969 153.183594 282.085938 153.070312 282.253906 C 152.859375 282.445312 152.648438 282.636719 152.4375 282.828125 C 149.855469 284.582031 147.273438 286.339844 144.148438 288.464844 C 145.359375 288.464844 145.777344 288.5 146.191406 288.460938 C 158.941406 287.242188 171.636719 288.148438 184.28125 289.710938 C 192.523438 290.734375 200.714844 292.199219 208.929688 293.46875 C 209.117188 293.574219 209.316406 293.605469 209.527344 293.566406 C 213.109375 294.519531 216.703125 295.421875 220.265625 296.4375 C 228.605469 298.8125 236.933594 301.246094 245.265625 303.65625 L 245.261719 303.636719 C 255.945312 306.929688 266.628906 310.21875 277.3125 313.511719 C 277.625 313.578125 277.941406 313.644531 278.257812 313.710938 C 286.628906 315.390625 295.003906 317.066406 303.375 318.742188 C 306.394531 319.089844 309.410156 319.4375 312.429688 319.789062 C 315.527344 320.496094 319.003906 318.699219 321.824219 321.226562 C 320.960938 321.71875 320.097656 322.210938 319.238281 322.703125 C 313.210938 322.640625 307.183594 322.578125 301.15625 322.511719 L 299.347656 322.375 C 298.488281 322.210938 297.628906 322.050781 296.769531 321.886719 C 296.355469 321.847656 295.941406 321.808594 295.527344 321.773438 C 295.328125 321.691406 295.128906 321.613281 294.925781 321.53125 C 289.953125 320.457031 284.890625 319.683594 280.019531 318.257812 C 259.871094 312.355469 239.898438 305.804688 219.617188 300.40625 C 207.714844 297.238281 195.355469 295.785156 183.203125 293.5625 C 182.894531 293.539062 182.589844 293.511719 182.277344 293.488281 C 180.488281 293.28125 178.695312 293.070312 176.90625 292.863281 C 176.523438 292.824219 176.136719 292.785156 175.753906 292.746094 C 172.382812 292.578125 169.007812 292.40625 165.636719 292.238281 C 164.820312 292.199219 164.007812 292.164062 163.195312 292.128906 C 156.648438 292.304688 150.105469 292.484375 143.5625 292.660156 C 143.183594 292.757812 142.800781 292.855469 142.421875 292.953125 C 140.074219 293.285156 137.582031 293.226562 135.402344 294.023438 C 128.363281 296.597656 121.441406 299.492188 114.472656 302.261719 L 114.328125 302.167969 L 114.195312 302.277344 C 106.402344 303.527344 99.734375 307.214844 93.492188 311.824219 C 93.078125 312.035156 92.660156 312.238281 92.246094 312.445312 C 91.96875 312.605469 91.691406 312.761719 91.414062 312.917969 C 91.21875 312.917969 91.074219 313 90.96875 313.164062 C 90.785156 313.324219 90.597656 313.484375 90.414062 313.648438 C 90.183594 313.847656 89.953125 314.050781 89.722656 314.253906 C 88.410156 315.695312 87.097656 317.136719 85.785156 318.578125 C 85.402344 319.128906 85.019531 319.679688 84.636719 320.230469 C 83.824219 320.339844 83.011719 320.449219 82.199219 320.558594 C 82.222656 319.144531 82.246094 317.730469 82.273438 316.320312 C 82.660156 315.839844 83.046875 315.359375 83.433594 314.878906 L 83.441406 314.867188 C 83.828125 314.441406 84.210938 314.019531 84.59375 313.59375 C 85.890625 312.363281 87.1875 311.128906 88.484375 309.894531 C 89.601562 309.085938 90.722656 308.273438 91.84375 307.460938 C 92.007812 307.480469 92.136719 307.417969 92.226562 307.277344 C 94.1875 306.089844 96.148438 304.902344 98.109375 303.714844 C 98.660156 303.449219 99.210938 303.179688 99.761719 302.914062 C 104.410156 301.285156 109.058594 299.652344 113.703125 298.023438 C 114.074219 297.949219 114.445312 297.878906 114.8125 297.808594 C 118.433594 296.417969 122.054688 295.027344 125.675781 293.636719 C 126.238281 293.378906 126.804688 293.125 127.367188 292.867188 C 130.753906 291.050781 134.136719 289.230469 137.523438 287.410156 C 139.046875 286.566406 140.566406 285.722656 142.089844 284.878906 C 142.242188 284.910156 142.351562 284.851562 142.417969 284.707031 C 143.046875 284.3125 143.675781 283.914062 144.300781 283.519531 C 144.539062 283.371094 144.773438 283.222656 145.007812 283.074219 C 147.460938 281.128906 149.914062 279.183594 152.367188 277.238281 C 154.375 274.335938 151.792969 274.144531 150.117188 273.414062 C 148.195312 272.753906 146.277344 272.09375 144.355469 271.4375 C 143.921875 271.28125 143.488281 271.128906 143.054688 270.972656 C 140.199219 269.691406 137.34375 268.40625 134.351562 267.0625 C 133.753906 268.070312 133.292969 268.847656 132.832031 269.628906 C 132.664062 269.824219 132.5 270.023438 132.332031 270.21875 C 131.457031 271.28125 130.582031 272.347656 129.707031 273.410156 C 129.546875 273.621094 129.382812 273.832031 129.21875 274.042969 C 128.589844 274.683594 127.960938 275.324219 127.332031 275.96875 L 127.351562 275.953125 C 127.117188 276.164062 126.882812 276.375 126.648438 276.585938 C 126.449219 276.753906 126.25 276.921875 126.046875 277.089844 C 124.8125 277.976562 123.574219 278.859375 122.335938 279.746094 L 122.34375 279.738281 C 122.050781 279.925781 121.761719 280.113281 121.46875 280.300781 C 121.308594 280.265625 121.183594 280.316406 121.089844 280.449219 C 120.84375 280.625 120.601562 280.796875 120.355469 280.96875 C 119.964844 281.164062 119.570312 281.355469 119.179688 281.546875 C 117.890625 282.183594 116.597656 282.824219 115.308594 283.460938 C 115.125 283.4375 114.960938 283.480469 114.816406 283.597656 C 114.5 283.746094 114.1875 283.890625 113.871094 284.039062 C 113.5625 284.109375 113.253906 284.183594 112.945312 284.253906 C 111.042969 284.828125 109.140625 285.398438 107.238281 285.96875 C 105.152344 286.398438 103.066406 286.828125 100.976562 287.253906 L 101.003906 287.261719 C 96.613281 288.140625 92.222656 289.023438 87.835938 289.90625 C 87.519531 290.042969 87.207031 290.179688 86.894531 290.320312 C 86.585938 290.386719 86.277344 290.457031 85.96875 290.527344 C 84.230469 291.09375 82.492188 291.660156 80.753906 292.230469 C 78.933594 292.898438 77.117188 293.566406 75.296875 294.238281 C 71.300781 296.253906 67.304688 298.265625 63.308594 300.28125 C 62.914062 300.546875 62.515625 300.808594 62.117188 301.074219 C 61.460938 301.480469 60.800781 301.890625 60.140625 302.296875 C 59.511719 302.105469 58.882812 301.910156 58.253906 301.714844 C 59.148438 300.09375 60.039062 298.46875 60.933594 296.84375 C 61.328125 296.574219 61.722656 296.308594 62.117188 296.039062 C 62.390625 295.859375 62.660156 295.679688 62.933594 295.503906 C 63.117188 295.527344 63.269531 295.464844 63.386719 295.320312 C 63.609375 295.15625 63.832031 294.992188 64.054688 294.828125 L 67.210938 293.085938 L 71.71875 291.125 C 71.890625 291.152344 72.035156 291.101562 72.15625 290.976562 C 72.988281 290.695312 73.824219 290.417969 74.660156 290.140625 C 74.859375 290.015625 75.058594 289.894531 75.253906 289.769531 L 75.28125 289.761719 C 76.332031 289.355469 77.378906 288.945312 78.429688 288.535156 C 79.699219 288.121094 80.96875 287.710938 82.234375 287.300781 C 83.0625 287.054688 83.894531 286.804688 84.722656 286.558594 C 85.339844 286.382812 85.960938 286.203125 86.578125 286.023438 C 87.625 285.78125 88.671875 285.535156 89.714844 285.292969 C 92.472656 284.71875 95.230469 284.140625 97.988281 283.566406 C 98.574219 283.496094 99.164062 283.421875 99.75 283.351562 C 103.539062 282.414062 107.324219 281.472656 111.113281 280.535156 L 112.320312 280.226562 C 112.546875 280.082031 112.769531 279.9375 112.996094 279.789062 L 112.972656 279.8125 C 114.667969 278.992188 116.367188 278.171875 118.0625 277.347656 L 118.054688 277.378906 C 119.425781 276.492188 120.800781 275.605469 122.171875 274.71875 C 123.058594 274.039062 123.949219 273.359375 124.835938 272.679688 C 125.316406 272.136719 125.796875 271.589844 126.28125 271.046875 C 126.445312 270.839844 126.609375 270.636719 126.773438 270.433594 C 126.980469 270.199219 127.183594 269.964844 127.390625 269.734375 L 127.382812 269.742188 C 127.566406 269.519531 127.753906 269.296875 127.9375 269.074219 L 127.964844 269.039062 C 128.992188 267.871094 130.019531 266.703125 131.265625 265.285156 C 129.910156 264.71875 128.984375 264.332031 128.054688 263.945312 C 125.550781 262.515625 123.046875 261.082031 120.542969 259.652344 C 119.605469 258.988281 118.664062 258.328125 117.65625 257.617188 C 116.941406 258.4375 116.425781 259.027344 115.914062 259.617188 C 113.011719 261.527344 110.242188 263.683594 107.183594 265.300781 C 101.761719 268.160156 95.757812 269.113281 89.738281 269.859375 C 89.304688 269.984375 88.867188 270.109375 88.433594 270.234375 C 88.023438 270.289062 87.613281 270.347656 87.207031 270.402344 C 85.9375 270.585938 84.667969 270.769531 83.402344 270.953125 C 82.378906 271.027344 81.355469 271.097656 80.332031 271.167969 C 79.902344 271.289062 79.46875 271.414062 79.039062 271.535156 C 78.625 271.589844 78.207031 271.640625 77.792969 271.695312 C 76.9375 271.863281 76.082031 272.03125 75.226562 272.199219 C 72.53125 272.859375 69.835938 273.515625 67.140625 274.171875 C 65.285156 274.792969 63.429688 275.40625 61.570312 276.027344 C 60.925781 276.28125 60.28125 276.539062 59.636719 276.792969 C 58.753906 277.324219 57.875 277.855469 56.992188 278.390625 L 57.011719 278.378906 C 55.558594 279.25 54.105469 280.117188 52.648438 280.988281 C 52.433594 281.140625 52.21875 281.292969 52.007812 281.445312 C 50.148438 282.355469 48.292969 283.269531 46.4375 284.179688 L 45.816406 283.519531 C 45.980469 282.679688 46.144531 281.839844 46.304688 281 C 46.59375 280.675781 46.878906 280.351562 47.167969 280.027344 C 49.613281 278.261719 52.058594 276.496094 54.507812 274.730469 C 55.371094 274.285156 56.234375 273.835938 57.097656 273.390625 C 59.632812 272.429688 62.164062 271.464844 64.699219 270.503906 C 65.101562 270.410156 65.5 270.316406 65.902344 270.21875 L 66.855469 269.824219 C 67.300781 269.585938 67.726562 269.203125 68.199219 269.128906 C 73.085938 268.359375 77.980469 267.636719 82.871094 266.902344 C 83.097656 266.8125 83.328125 266.722656 83.554688 266.632812 C 83.941406 266.601562 84.324219 266.566406 84.710938 266.53125 C 88.296875 265.9375 91.886719 265.339844 95.476562 264.746094 C 95.855469 264.695312 96.238281 264.644531 96.621094 264.597656 C 97.886719 264.214844 99.148438 263.835938 100.414062 263.453125 C 101.03125 263.21875 101.652344 262.984375 102.269531 262.746094 C 104.015625 261.867188 105.761719 260.988281 107.507812 260.109375 L 107.777344 260.011719 C 110 258.707031 112.222656 257.402344 115.167969 255.671875 C 113.402344 255.121094 112.566406 254.859375 111.726562 254.597656 C 110.605469 253.789062 109.480469 252.980469 108.359375 252.175781 L 106.050781 250.878906 L 106.058594 250.882812 C 105.027344 250.238281 103.960938 249.648438 102.976562 248.941406 C 101.597656 247.949219 100.558594 248.070312 99.820312 249.675781 L 99.789062 249.695312 C 98.710938 250.503906 97.632812 251.316406 96.554688 252.125 C 96.335938 252.136719 96.15625 252.226562 96.019531 252.394531 C 95.574219 252.71875 95.125 253.039062 94.679688 253.359375 L 94.699219 253.339844 C 93.023438 254.191406 91.347656 255.042969 89.675781 255.894531 C 89.261719 256.078125 88.847656 256.257812 88.4375 256.4375 C 87.808594 256.679688 87.183594 256.917969 86.558594 257.160156 C 86.355469 257.144531 86.160156 257.179688 85.972656 257.269531 C 84.910156 257.644531 83.851562 258.023438 82.789062 258.398438 L 82.804688 258.390625 C 80.089844 258.855469 77.375 259.324219 74.660156 259.792969 C 72.578125 259.882812 70.496094 259.96875 68.417969 260.058594 C 67.574219 260.136719 66.726562 260.214844 65.882812 260.292969 C 65.46875 260.320312 65.050781 260.347656 64.636719 260.375 C 63.179688 260.566406 61.71875 260.757812 60.261719 260.949219 C 56.484375 261.976562 52.707031 263.007812 48.929688 264.039062 C 46.816406 265.09375 44.707031 266.148438 42.597656 267.203125 C 42.425781 267.339844 42.257812 267.476562 42.085938 267.613281 C 41.660156 267.898438 41.234375 268.183594 40.808594 268.46875 L 40.796875 268.480469 C 40.566406 268.675781 40.335938 268.875 40.105469 269.074219 C 39.476562 269.65625 38.847656 270.238281 38.21875 270.820312 C 37.394531 271.703125 36.570312 272.589844 35.75 273.476562 C 35.136719 273.457031 34.527344 273.4375 33.917969 273.417969 C 33.761719 273.210938 33.601562 273.003906 33.441406 272.792969 C 33.398438 272.191406 33.351562 271.589844 33.308594 270.988281 C 33.757812 270.167969 34.210938 269.34375 34.660156 268.523438 L 35.75 267.332031 C 35.988281 267.09375 36.222656 266.851562 36.460938 266.609375 L 36.429688 266.640625 C 36.625 266.414062 36.820312 266.183594 37.015625 265.953125 C 38.691406 264.878906 40.367188 263.808594 42.039062 262.734375 C 43.140625 262.15625 44.238281 261.578125 45.335938 261 C 45.738281 260.859375 46.140625 260.714844 46.539062 260.574219 C 48.238281 259.882812 49.933594 259.1875 51.628906 258.496094 L 51.871094 258.511719 L 52.082031 258.390625 C 55.015625 257.796875 57.953125 257.207031 60.886719 256.613281 C 61.304688 256.558594 61.722656 256.503906 62.144531 256.449219 C 64.855469 256.265625 67.570312 256.082031 70.28125 255.898438 C 71.324219 255.878906 72.367188 255.863281 73.410156 255.84375 C 75.71875 255.453125 78.03125 255.0625 80.339844 254.671875 C 82.625 253.964844 84.90625 253.253906 87.1875 252.546875 C 88.253906 252.003906 89.320312 251.464844 90.386719 250.921875 L 90.375 250.933594 C 91.714844 250.125 93.050781 249.316406 94.390625 248.507812 C 94.542969 248.535156 94.660156 248.484375 94.738281 248.351562 C 95.671875 247.730469 96.609375 247.105469 97.898438 246.242188 L 92.234375 244.074219 C 91.613281 243.835938 90.996094 243.597656 90.378906 243.359375 C 89.121094 242.941406 87.859375 242.519531 86.601562 242.097656 L 86.609375 242.101562 C 84.945312 241.664062 83.28125 241.226562 81.617188 240.789062 L 81.628906 240.808594 C 79.933594 240.425781 78.238281 240.042969 76.542969 239.660156 L 60.589844 237.574219 C 60.28125 237.515625 59.976562 237.453125 59.667969 237.394531 C 58.605469 237.328125 57.546875 237.261719 56.488281 237.195312 L 53.328125 237.191406 L 50.84375 237.214844 C 48.316406 237.589844 45.792969 237.964844 43.269531 238.339844 L 42.054688 238.464844 L 35.796875 240.335938 C 35.351562 239.675781 34.90625 239.015625 34.460938 238.351562 C 35.207031 237.554688 35.949219 236.753906 36.691406 235.953125 L 36.882812 235.953125 L 37.023438 235.824219 C 37.460938 235.664062 37.898438 235.503906 38.332031 235.347656 C 38.738281 235.25 39.144531 235.15625 39.550781 235.058594 C 39.824219 234.929688 40.101562 234.796875 40.378906 234.667969 C 40.738281 234.453125 41.09375 234.242188 41.453125 234.027344 Z M 41.453125 234.023438 " fill-opacity="1" fill-rule="nonzero"/></g></g><g clip-path="url(#63c67def08)"><g clip-path="url(#ebaf85cd1a)"><path fill="#d46927" d="M 210.871094 204.011719 L 212.691406 203.6875 C 213.144531 203.546875 213.601562 203.40625 214.054688 203.265625 C 215.480469 203.015625 216.90625 202.761719 218.335938 202.511719 C 223.394531 201.925781 228.457031 201.339844 233.519531 200.757812 C 236.617188 200.527344 239.714844 200.292969 242.8125 200.0625 C 247.238281 199.457031 251.664062 198.851562 256.089844 198.242188 L 256.355469 198.257812 L 256.601562 198.15625 C 257.449219 197.992188 258.296875 197.824219 259.144531 197.660156 L 260.375 197.457031 C 262.714844 196.886719 265.054688 196.3125 267.390625 195.738281 L 267.652344 195.753906 L 267.890625 195.644531 C 269.175781 195.265625 270.457031 194.886719 271.742188 194.507812 L 271.738281 194.535156 C 273.179688 194.085938 274.621094 193.632812 276.0625 193.179688 C 276.894531 192.9375 277.726562 192.691406 278.554688 192.449219 C 283.179688 190.609375 287.800781 188.769531 292.421875 186.929688 C 292.625 186.9375 292.8125 186.878906 292.976562 186.765625 C 293.660156 186.414062 294.339844 186.0625 295.019531 185.710938 C 295.207031 185.734375 295.367188 185.683594 295.507812 185.558594 C 295.761719 185.398438 296.015625 185.238281 296.269531 185.078125 C 296.453125 185.097656 296.617188 185.050781 296.761719 184.929688 C 297.015625 184.789062 297.265625 184.644531 297.515625 184.5 L 297.5 184.546875 C 298.339844 184.097656 299.179688 183.644531 300.019531 183.191406 C 300.410156 182.992188 300.800781 182.792969 301.191406 182.59375 C 302.304688 181.972656 303.417969 181.351562 304.53125 180.726562 C 307.371094 178.964844 310.210938 177.199219 313.054688 175.433594 C 313.496094 175.082031 313.9375 174.730469 314.378906 174.378906 C 314.78125 174.113281 315.183594 173.851562 315.585938 173.585938 C 315.78125 173.421875 315.980469 173.257812 316.175781 173.09375 L 316.191406 173.078125 C 316.859375 172.546875 317.523438 172.015625 318.191406 171.484375 L 319.328125 170.5625 C 321.230469 168.90625 323.132812 167.25 325.035156 165.59375 C 325.238281 165.398438 325.441406 165.203125 325.640625 165.011719 C 326.335938 164.390625 327.027344 163.773438 327.71875 163.15625 C 327.898438 163.160156 328.027344 163.082031 328.109375 162.921875 C 330.292969 161.035156 332.476562 159.152344 334.660156 157.265625 L 334.902344 157.121094 C 335.566406 157.019531 336.230469 156.914062 336.894531 156.8125 C 337.054688 157.621094 337.214844 158.429688 337.371094 159.238281 C 336.226562 160.53125 335.082031 161.824219 333.9375 163.117188 C 333.683594 163.347656 333.433594 163.582031 333.183594 163.8125 C 332.539062 164.398438 331.890625 164.984375 331.246094 165.566406 C 331.035156 165.761719 330.824219 165.953125 330.617188 166.144531 C 330.386719 166.363281 330.15625 166.582031 329.925781 166.800781 C 329.730469 166.976562 329.53125 167.152344 329.332031 167.332031 C 329.097656 167.554688 328.863281 167.78125 328.625 168.007812 L 328.648438 167.953125 L 322.582031 173.136719 C 322.34375 173.347656 322.105469 173.5625 321.867188 173.777344 C 320.601562 174.804688 319.339844 175.832031 318.074219 176.863281 C 317.667969 177.148438 317.261719 177.4375 316.855469 177.726562 C 316.140625 178.242188 315.429688 178.761719 314.714844 179.277344 C 314.140625 179.664062 313.5625 180.050781 312.988281 180.433594 C 311.535156 181.332031 310.082031 182.226562 308.628906 183.121094 C 308.402344 183.261719 308.175781 183.402344 307.949219 183.542969 C 306.730469 184.246094 305.515625 184.953125 304.300781 185.65625 C 304.074219 185.746094 303.847656 185.832031 303.621094 185.921875 C 303.453125 186.050781 303.285156 186.179688 303.117188 186.308594 L 303.046875 186.339844 C 302.765625 186.503906 302.484375 186.667969 302.199219 186.832031 C 302.027344 186.804688 301.882812 186.855469 301.765625 186.984375 C 301.507812 187.144531 301.246094 187.308594 300.988281 187.46875 C 300.808594 187.453125 300.65625 187.507812 300.53125 187.640625 C 299.429688 188.210938 298.328125 188.777344 297.226562 189.347656 C 292.476562 191.296875 287.722656 193.246094 282.972656 195.195312 C 281.445312 195.753906 279.921875 196.3125 278.398438 196.871094 C 278.222656 196.832031 278.070312 196.871094 277.9375 196.988281 C 276.804688 197.355469 275.675781 197.726562 274.542969 198.09375 C 274.394531 198.039062 274.269531 198.074219 274.167969 198.199219 C 272.839844 198.582031 271.507812 198.96875 270.175781 199.355469 C 269.835938 199.417969 269.5 199.480469 269.160156 199.542969 C 265.953125 200.320312 262.746094 201.101562 259.542969 201.878906 C 256.25 202.386719 252.960938 202.894531 249.667969 203.40625 C 249.023438 203.535156 248.378906 203.664062 247.734375 203.796875 C 247.339844 203.835938 246.945312 203.878906 246.550781 203.921875 C 244.664062 204.097656 242.777344 204.277344 240.890625 204.457031 C 238.558594 204.605469 236.226562 204.75 233.894531 204.894531 C 233.492188 204.941406 233.09375 204.984375 232.695312 205.03125 L 232.742188 205.011719 C 226.472656 205.871094 220.207031 206.730469 213.941406 207.589844 C 213.519531 207.644531 213.097656 207.699219 212.675781 207.753906 C 212.234375 207.902344 211.789062 208.046875 211.347656 208.195312 C 205.082031 210.25 198.8125 212.300781 192.546875 214.351562 C 191.515625 214.820312 190.484375 215.285156 189.453125 215.753906 C 188.839844 216.015625 188.226562 216.277344 187.617188 216.542969 C 185.285156 217.945312 182.953125 219.347656 180.621094 220.75 C 180.402344 220.890625 180.183594 221.035156 179.964844 221.175781 C 178.621094 222.15625 177.273438 223.136719 175.929688 224.117188 C 176 224.382812 176.074219 224.648438 176.148438 224.914062 L 187.558594 225.859375 L 187.546875 225.839844 L 199.632812 225.851562 L 200.132812 225.15625 C 200.691406 224.523438 201.25 223.894531 201.808594 223.261719 C 202.539062 222.515625 203.265625 221.765625 203.996094 221.015625 C 205.277344 220.125 206.558594 219.230469 207.839844 218.339844 C 208.628906 217.921875 209.417969 217.5 210.207031 217.082031 C 211.066406 216.679688 211.929688 216.277344 212.792969 215.878906 L 212.800781 215.90625 C 214.023438 215.441406 215.246094 214.980469 216.46875 214.519531 L 216.460938 214.523438 C 217.960938 214.113281 219.457031 213.707031 220.957031 213.300781 C 223.011719 212.878906 225.066406 212.453125 227.121094 212.03125 C 228.589844 211.832031 230.058594 211.632812 231.527344 211.4375 C 231.941406 211.390625 232.355469 211.34375 232.769531 211.300781 C 234.664062 211.121094 236.558594 210.941406 238.453125 210.765625 C 239.695312 210.726562 240.9375 210.6875 242.175781 210.648438 C 246.398438 210.28125 250.621094 209.914062 254.84375 209.546875 L 255.105469 209.5625 L 255.34375 209.464844 C 258.054688 209.050781 260.765625 208.632812 263.476562 208.21875 C 264.53125 208 265.585938 207.777344 266.640625 207.558594 C 267.476562 207.367188 268.316406 207.179688 269.15625 206.992188 C 270.402344 206.734375 271.652344 206.476562 272.902344 206.222656 C 274.804688 205.652344 276.707031 205.082031 278.609375 204.511719 L 278.59375 204.527344 C 279.921875 204.125 281.25 203.722656 282.578125 203.324219 L 282.785156 203.324219 L 282.949219 203.203125 C 284.082031 202.824219 285.214844 202.445312 286.351562 202.066406 L 286.550781 202.078125 L 286.710938 201.953125 C 287.820312 201.566406 288.929688 201.175781 290.039062 200.789062 C 290.207031 200.816406 290.351562 200.773438 290.472656 200.652344 C 292.582031 199.839844 294.691406 199.027344 296.796875 198.214844 L 313.066406 190.046875 C 313.941406 189.457031 314.816406 188.871094 315.691406 188.28125 L 315.703125 188.304688 C 316.9375 187.429688 318.171875 186.554688 319.410156 185.679688 C 319.800781 185.398438 320.1875 185.117188 320.578125 184.835938 C 321.257812 184.292969 321.9375 183.746094 322.617188 183.199219 C 322.8125 183.058594 323.011719 182.917969 323.207031 182.777344 C 324.042969 182.078125 324.882812 181.375 325.71875 180.675781 C 326.09375 180.382812 326.46875 180.085938 326.847656 179.792969 C 328.5625 178.277344 330.277344 176.757812 331.992188 175.242188 L 333.113281 174.273438 C 333.519531 173.875 333.929688 173.476562 334.335938 173.078125 L 334.367188 173.050781 C 335.835938 172.460938 337.300781 171.871094 338.765625 171.28125 C 338.792969 171.476562 338.839844 171.660156 338.917969 171.839844 C 337.429688 173.945312 335.9375 176.046875 334.449219 178.152344 L 334.421875 178.179688 L 333.128906 179.371094 L 329.386719 183.21875 C 327.265625 184.855469 325.148438 186.496094 323.03125 188.132812 C 320.550781 189.871094 318.070312 191.609375 315.589844 193.347656 C 314.3125 194.121094 313.035156 194.894531 311.757812 195.667969 C 311.363281 195.898438 310.96875 196.128906 310.570312 196.363281 C 308.488281 197.398438 306.402344 198.433594 304.320312 199.46875 C 300.550781 200.992188 296.777344 202.515625 293.007812 204.039062 C 291.71875 204.574219 290.425781 205.109375 289.136719 205.644531 L 289.148438 205.613281 C 287.785156 206.078125 286.425781 206.542969 285.066406 207.007812 C 283.523438 207.441406 281.980469 207.875 280.433594 208.308594 C 279.996094 208.472656 279.554688 208.632812 279.113281 208.796875 L 279.152344 208.773438 C 277.679688 209.167969 276.207031 209.5625 274.734375 209.953125 C 274.125 210.0625 273.511719 210.167969 272.898438 210.277344 C 272.492188 210.4375 272.082031 210.59375 271.675781 210.753906 C 266.425781 211.671875 261.179688 212.589844 255.929688 213.507812 C 255.625 213.597656 255.320312 213.691406 255.015625 213.785156 C 254.292969 213.847656 253.566406 213.914062 252.84375 213.980469 C 250.539062 214.160156 248.238281 214.34375 245.9375 214.527344 L 243.433594 214.605469 C 236.085938 215.566406 228.742188 216.523438 221.398438 217.484375 L 220.195312 217.769531 C 219.761719 217.914062 219.324219 218.058594 218.886719 218.203125 L 218.898438 218.179688 C 217.214844 218.753906 215.535156 219.332031 213.855469 219.910156 C 213.4375 220.117188 213.015625 220.324219 212.597656 220.53125 C 211.761719 221.007812 210.929688 221.488281 210.09375 221.96875 L 210.113281 221.941406 C 208.472656 223.042969 206.828125 224.144531 205.1875 225.246094 C 205.316406 225.558594 205.449219 225.867188 205.578125 226.175781 C 212.183594 225.652344 218.792969 225.132812 225.402344 224.609375 C 226.179688 224.5625 226.960938 224.519531 227.742188 224.472656 C 232.785156 224.460938 237.828125 224.484375 242.871094 224.390625 C 243.53125 224.378906 244.183594 223.765625 244.835938 223.433594 L 244.679688 223.355469 L 244.828125 223.453125 C 246.703125 222.191406 248.582031 220.929688 250.457031 219.667969 L 250.464844 219.703125 C 251.699219 219.238281 252.933594 218.769531 254.171875 218.304688 C 254.367188 218.332031 254.546875 218.292969 254.714844 218.183594 C 256.601562 217.761719 258.484375 217.335938 260.371094 216.914062 C 260.804688 216.859375 261.238281 216.808594 261.667969 216.753906 C 261.949219 216.664062 262.234375 216.574219 262.515625 216.484375 L 262.703125 216.554688 L 262.867188 216.445312 C 267.261719 216.203125 271.65625 215.960938 276.054688 215.714844 C 276.433594 215.75 276.8125 215.785156 277.191406 215.820312 C 282.097656 215.832031 287.007812 215.839844 291.917969 215.851562 C 293.105469 215.78125 294.292969 215.707031 295.480469 215.632812 C 297.78125 215.257812 300.082031 214.878906 302.382812 214.503906 C 305.3125 213.84375 308.246094 213.1875 311.175781 212.527344 C 313.066406 211.9375 314.957031 211.347656 316.847656 210.757812 L 316.835938 210.765625 C 318.519531 210.167969 320.203125 209.570312 321.886719 208.972656 C 322.296875 208.871094 322.707031 208.769531 323.117188 208.664062 C 323.332031 208.527344 323.542969 208.390625 323.753906 208.253906 L 323.742188 208.261719 C 325.570312 207.410156 327.394531 206.558594 329.222656 205.710938 C 332.617188 204.011719 336.011719 202.3125 339.40625 200.617188 C 341.71875 199.398438 344.03125 198.175781 346.34375 196.957031 C 346.75 196.730469 347.152344 196.5 347.554688 196.269531 C 347.792969 196.089844 348.027344 195.910156 348.261719 195.726562 L 348.246094 195.757812 C 349.472656 195.558594 350.699219 195.363281 351.925781 195.167969 L 351.996094 196.960938 C 351.683594 197.332031 351.371094 197.707031 351.0625 198.078125 C 350.738281 198.34375 350.417969 198.609375 350.097656 198.871094 C 349.867188 199.058594 349.640625 199.242188 349.410156 199.425781 L 349.4375 199.425781 C 349.25 199.640625 349.058594 199.859375 348.867188 200.074219 C 348.222656 200.515625 347.578125 200.957031 346.933594 201.398438 L 346.238281 201.941406 C 341.84375 204.175781 337.445312 206.414062 333.050781 208.652344 C 331.597656 209.34375 330.148438 210.035156 328.695312 210.722656 C 328.484375 210.714844 328.289062 210.765625 328.109375 210.878906 C 327.871094 211.019531 327.632812 211.164062 327.394531 211.304688 L 327.417969 211.265625 C 326.382812 211.683594 325.347656 212.101562 324.316406 212.523438 L 323.074219 212.863281 C 322.867188 212.988281 322.660156 213.117188 322.453125 213.246094 C 321.832031 213.46875 321.210938 213.691406 320.589844 213.914062 C 317.222656 214.941406 313.859375 215.96875 310.492188 216.992188 C 310.101562 217.0625 309.707031 217.128906 309.316406 217.195312 C 308.035156 217.539062 306.753906 217.878906 305.476562 218.21875 L 305.488281 218.199219 C 302.773438 218.632812 300.058594 219.070312 297.34375 219.503906 C 296.296875 219.585938 295.25 219.667969 294.207031 219.75 C 290.460938 219.910156 286.714844 220.074219 282.96875 220.234375 L 280.453125 220.109375 C 274.695312 220.300781 268.941406 220.492188 263.183594 220.683594 C 262.457031 220.75 261.730469 220.816406 261.003906 220.882812 C 259.523438 221.253906 258.039062 221.628906 256.558594 222.003906 L 256.570312 221.988281 C 254.628906 222.621094 252.6875 223.25 250.746094 223.878906 C 250.820312 224.042969 250.894531 224.210938 250.964844 224.375 C 258.480469 225.203125 265.996094 226.03125 273.511719 226.855469 C 276.214844 227.351562 278.917969 227.851562 281.621094 228.347656 C 282.058594 228.492188 282.5 228.632812 282.9375 228.777344 C 283.355469 228.855469 283.769531 228.9375 284.183594 229.019531 C 285.203125 229.4375 286.222656 229.855469 287.242188 230.273438 C 287.042969 229.96875 286.847656 229.660156 286.648438 229.351562 C 287.804688 228.628906 288.960938 227.910156 290.117188 227.1875 C 290.265625 227.199219 290.386719 227.144531 290.472656 227.023438 C 293.316406 226.566406 296.152344 225.820312 299.007812 225.722656 C 304.203125 225.542969 309.417969 225.890625 314.613281 225.738281 C 317.265625 225.664062 319.898438 224.984375 322.539062 224.578125 L 322.824219 224.578125 L 323.089844 224.480469 C 324.222656 224.121094 325.355469 223.765625 326.488281 223.410156 C 327.050781 223.199219 327.613281 222.992188 328.171875 222.78125 C 329.671875 222.136719 331.171875 221.496094 332.671875 220.851562 C 332.851562 220.875 333.007812 220.828125 333.144531 220.710938 C 333.4375 220.554688 333.730469 220.402344 334.023438 220.246094 C 334.175781 220.28125 334.300781 220.234375 334.386719 220.101562 C 335.65625 219.5 336.925781 218.902344 338.195312 218.300781 L 338.179688 218.304688 C 341.566406 216.640625 344.953125 214.976562 348.34375 213.3125 L 348.535156 213.355469 L 348.722656 213.289062 C 348.949219 213.40625 349.179688 213.523438 349.40625 213.636719 C 349.53125 213.824219 349.707031 213.925781 349.929688 213.945312 C 348.675781 215.578125 347.421875 217.210938 346.167969 218.839844 C 345.980469 218.828125 345.8125 218.886719 345.675781 219.019531 C 345.449219 219.179688 345.226562 219.339844 345 219.496094 L 345.019531 219.492188 C 343.339844 220.539062 341.65625 221.585938 339.976562 222.636719 C 338.539062 223.105469 337.101562 223.574219 335.660156 224.042969 C 332.097656 225.460938 328.535156 226.878906 324.972656 228.300781 C 322.464844 228.734375 319.960938 229.171875 317.453125 229.609375 C 313.898438 229.597656 310.34375 229.585938 306.789062 229.578125 C 306.164062 229.554688 305.539062 229.53125 304.910156 229.511719 C 304.28125 229.515625 303.652344 229.519531 303.027344 229.523438 L 299.261719 229.613281 L 295.507812 229.65625 C 294.195312 230.011719 292.878906 230.371094 291.5625 230.730469 C 291.566406 230.96875 291.570312 231.203125 291.574219 231.441406 C 292.886719 231.8125 294.199219 232.179688 295.511719 232.550781 L 297.988281 233.347656 L 297.976562 233.359375 C 298.402344 233.523438 298.824219 233.683594 299.25 233.847656 C 299.398438 233.984375 299.570312 234.039062 299.773438 234.011719 C 300.023438 234.15625 300.277344 234.300781 300.527344 234.445312 C 300.695312 234.558594 300.878906 234.617188 301.082031 234.609375 C 301.707031 234.902344 302.335938 235.191406 302.960938 235.484375 C 304.1875 236.039062 305.414062 236.59375 306.640625 237.148438 C 306.894531 237.300781 307.148438 237.449219 307.402344 237.601562 C 307.84375 237.847656 308.289062 238.089844 308.734375 238.335938 L 309.273438 238.75 C 309.882812 239.042969 310.488281 239.339844 311.097656 239.636719 C 311.332031 239.796875 311.566406 239.960938 311.800781 240.125 C 311.960938 240.265625 312.152344 240.332031 312.367188 240.328125 L 312.332031 240.300781 C 312.578125 240.476562 312.828125 240.652344 313.074219 240.828125 L 313.101562 240.839844 C 313.929688 241.402344 314.757812 241.964844 315.585938 242.527344 C 315.785156 242.613281 315.980469 242.699219 316.179688 242.785156 C 316.425781 242.96875 316.671875 243.152344 316.917969 243.335938 C 317.730469 243.917969 318.546875 244.5 319.359375 245.082031 C 319.542969 245.179688 319.722656 245.277344 319.90625 245.375 C 320.113281 245.554688 320.320312 245.730469 320.527344 245.90625 C 320.925781 246.199219 321.328125 246.488281 321.730469 246.78125 L 322.296875 247.210938 C 322.820312 247.699219 323.34375 248.1875 323.867188 248.675781 L 324.039062 248.90625 C 324.125 249.761719 324.214844 250.617188 324.300781 251.472656 L 324.332031 251.460938 C 323.921875 251.65625 323.515625 251.847656 323.109375 252.042969 C 321.863281 251.429688 320.613281 250.816406 319.367188 250.203125 C 319.128906 250.023438 318.894531 249.84375 318.65625 249.664062 C 318.457031 249.507812 318.261719 249.355469 318.0625 249.199219 C 317.875 249.097656 317.683594 248.996094 317.496094 248.890625 C 317.285156 248.71875 317.074219 248.546875 316.863281 248.378906 C 316.011719 247.769531 315.164062 247.164062 314.3125 246.558594 C 313.941406 246.3125 313.570312 246.066406 313.199219 245.824219 C 312.316406 245.238281 311.433594 244.652344 310.550781 244.066406 C 310.136719 243.832031 309.722656 243.601562 309.304688 243.367188 C 308.078125 242.675781 306.847656 241.980469 305.621094 241.289062 C 305.359375 241.15625 305.101562 241.019531 304.84375 240.886719 C 304.265625 240.605469 303.6875 240.320312 303.113281 240.035156 C 297.261719 237.917969 291.40625 235.800781 285.554688 233.679688 C 284.964844 233.539062 284.378906 233.394531 283.789062 233.253906 C 283.304688 233.105469 282.820312 232.960938 282.339844 232.816406 C 281.9375 232.726562 281.539062 232.636719 281.140625 232.546875 C 279.652344 232.207031 278.164062 231.871094 276.675781 231.53125 C 276.292969 231.429688 275.910156 231.332031 275.53125 231.230469 C 266.296875 230.296875 257.066406 229.359375 247.832031 228.421875 C 246.363281 228.40625 244.894531 228.386719 243.425781 228.371094 L 242.171875 228.371094 C 241.523438 228.515625 240.871094 228.660156 240.222656 228.800781 C 238.378906 228.8125 236.53125 228.824219 234.6875 228.835938 C 234.253906 228.695312 233.824219 228.550781 233.390625 228.410156 C 232.246094 228.390625 231.097656 228.308594 229.957031 228.367188 C 218.722656 228.960938 207.492188 229.824219 196.25 230.085938 C 190.035156 230.230469 183.792969 229.375 177.5625 228.96875 C 177.171875 228.882812 176.785156 228.792969 176.394531 228.707031 C 175.109375 228.410156 173.820312 228.109375 172.53125 227.808594 C 172.140625 227.714844 171.746094 227.617188 171.351562 227.523438 C 167.699219 226.246094 164.046875 224.96875 160.394531 223.691406 C 160.054688 223.558594 159.710938 223.425781 159.371094 223.292969 C 150.40625 218.804688 141.441406 214.320312 132.476562 209.835938 C 132.238281 209.722656 131.996094 209.609375 131.753906 209.496094 C 127.570312 207.449219 123.390625 205.40625 119.207031 203.363281 C 119.054688 203.210938 118.871094 203.152344 118.65625 203.1875 C 116.582031 202.316406 114.507812 201.445312 112.433594 200.574219 C 105.492188 198.113281 98.546875 195.65625 91.605469 193.199219 C 91.515625 193.050781 91.386719 193.003906 91.222656 193.054688 C 88.21875 192.195312 85.214844 191.332031 82.214844 190.472656 L 81.972656 190.554688 L 80.960938 190.15625 C 80.550781 190.085938 80.140625 190.015625 79.726562 189.945312 C 75.324219 189.328125 70.917969 188.710938 66.511719 188.089844 C 66.371094 187.96875 66.234375 187.96875 66.097656 188.09375 C 58.460938 188.019531 50.753906 187.285156 43.210938 188.101562 C 38.058594 188.660156 33.136719 191.375 28.109375 193.125 C 27.082031 193.148438 26.050781 193.167969 25.019531 193.191406 L 24.441406 191.296875 C 24.5625 191.160156 24.597656 191.003906 24.546875 190.828125 C 24.738281 190.570312 24.929688 190.3125 25.121094 190.054688 L 25.113281 190.0625 C 25.347656 189.859375 25.578125 189.660156 25.808594 189.460938 L 25.789062 189.496094 C 26.636719 189.085938 27.488281 188.671875 28.339844 188.261719 L 28.378906 188.285156 C 29.390625 187.832031 30.402344 187.375 31.410156 186.921875 C 32.867188 186.253906 34.320312 185.585938 35.773438 184.921875 C 36.636719 184.824219 37.5 184.730469 38.363281 184.632812 C 39.382812 184.507812 40.40625 184.382812 41.425781 184.253906 C 45.242188 183.910156 49.058594 183.566406 52.875 183.222656 C 53.410156 183.214844 53.945312 183.207031 54.484375 183.199219 C 60.375 183.605469 66.269531 184.007812 72.160156 184.414062 L 72.382812 184.503906 L 72.621094 184.46875 C 76.652344 185.261719 80.683594 186.050781 84.710938 186.84375 C 84.871094 186.945312 85.046875 186.984375 85.234375 186.953125 C 85.679688 187.097656 86.125 187.242188 86.566406 187.386719 C 86.972656 187.492188 87.382812 187.597656 87.789062 187.707031 C 88.421875 187.878906 89.054688 188.050781 89.6875 188.226562 L 89.671875 188.207031 C 90.941406 188.617188 92.210938 189.023438 93.480469 189.433594 L 93.472656 189.429688 C 95.96875 190.3125 98.460938 191.191406 100.953125 192.074219 C 102.183594 192.464844 103.414062 192.855469 104.644531 193.242188 C 106.785156 194.03125 108.921875 194.816406 111.0625 195.605469 C 111.222656 195.710938 111.394531 195.753906 111.585938 195.730469 C 111.824219 195.871094 112.058594 196.007812 112.296875 196.148438 C 112.65625 196.234375 113.019531 196.316406 113.378906 196.398438 C 113.648438 196.550781 113.914062 196.699219 114.183594 196.851562 C 116.351562 197.710938 118.519531 198.570312 120.6875 199.429688 C 121.648438 199.875 122.609375 200.316406 123.574219 200.757812 L 123.558594 200.746094 C 125.042969 201.5 126.53125 202.253906 128.019531 203.007812 C 128.226562 203.074219 128.4375 203.140625 128.648438 203.210938 C 129.472656 203.636719 130.296875 204.0625 131.125 204.488281 L 131.117188 204.484375 C 131.945312 204.921875 132.769531 205.359375 133.597656 205.796875 L 133.578125 205.78125 C 134.007812 206.007812 134.4375 206.234375 134.863281 206.457031 C 135.992188 207.042969 137.117188 207.628906 138.242188 208.214844 C 138.808594 208.578125 139.371094 208.945312 139.933594 209.308594 C 140.128906 209.375 140.324219 209.4375 140.519531 209.503906 C 141.160156 209.863281 141.800781 210.226562 142.441406 210.589844 C 142.601562 210.722656 142.785156 210.785156 142.996094 210.773438 C 144.257812 211.414062 145.519531 212.054688 146.78125 212.699219 C 151.578125 214.984375 156.375 217.277344 161.171875 219.5625 L 162.492188 220.132812 L 163.050781 220.394531 C 163.480469 220.546875 163.910156 220.699219 164.339844 220.851562 L 164.324219 220.832031 C 166.40625 221.691406 168.492188 222.546875 170.160156 223.234375 C 171.878906 222.035156 173.191406 221.117188 174.507812 220.199219 C 174.714844 220.042969 174.917969 219.882812 175.125 219.722656 C 176.320312 218.820312 177.515625 217.914062 178.710938 217.011719 C 179.191406 216.667969 179.671875 216.320312 180.152344 215.976562 L 181.351562 215.238281 C 181.765625 215.011719 182.179688 214.789062 182.59375 214.5625 C 183.414062 214.125 184.238281 213.6875 185.0625 213.25 C 185.488281 213.03125 185.910156 212.8125 186.335938 212.59375 C 188.035156 211.832031 189.730469 211.074219 191.425781 210.3125 C 191.824219 210.195312 192.21875 210.078125 192.617188 209.960938 C 192.851562 209.816406 193.085938 209.671875 193.324219 209.527344 C 194.339844 209.070312 195.355469 208.609375 196.371094 208.152344 C 197.632812 207.765625 198.894531 207.378906 200.15625 206.996094 C 201.820312 206.523438 203.484375 206.050781 205.144531 205.578125 C 207.050781 205.058594 208.960938 204.539062 210.867188 204.019531 Z M 210.871094 204.011719 " fill-opacity="1" fill-rule="nonzero"/></g></g><g clip-path="url(#4f2688adcc)"><g clip-path="url(#67a577277d)"><path fill="#d46927" d="M 72.15625 203.390625 C 71.59375 203.308594 71.03125 203.230469 70.464844 203.148438 C 60.710938 200.9375 50.953125 200.644531 41.199219 203.136719 C 40.644531 203.191406 40.09375 203.25 39.542969 203.304688 C 38.894531 203.378906 38.246094 203.453125 37.597656 203.527344 C 37.378906 203.617188 37.15625 203.707031 36.9375 203.796875 C 36.550781 203.835938 36.164062 203.878906 35.777344 203.917969 C 32.425781 204.53125 29.078125 205.140625 25.726562 205.753906 C 24.3125 204.476562 24.492188 203.199219 25.726562 201.921875 C 27.007812 201.523438 28.289062 201.128906 29.566406 200.730469 C 29.96875 200.6875 30.367188 200.640625 30.765625 200.597656 C 32.878906 200.226562 34.992188 199.851562 37.109375 199.480469 C 38.34375 199.277344 39.582031 199.074219 40.816406 198.871094 C 41.234375 198.8125 41.648438 198.753906 42.066406 198.699219 C 42.953125 198.550781 43.84375 198.40625 44.734375 198.257812 L 44.972656 198.304688 L 45.1875 198.1875 C 53.113281 197.167969 61.019531 197.332031 68.867188 198.839844 C 74.988281 200.011719 81.074219 201.371094 87.179688 202.648438 L 87.160156 202.625 C 87.375 202.742188 87.589844 202.859375 87.804688 202.976562 C 88.238281 203.054688 88.671875 203.132812 89.105469 203.214844 C 90.558594 203.648438 92.011719 204.082031 93.464844 204.511719 L 93.449219 204.5 C 103.53125 207.605469 113.191406 211.65625 122.214844 217.167969 C 132.984375 224.667969 144.136719 231.566406 156.613281 235.804688 C 163.628906 238.191406 170.976562 239.582031 178.175781 241.421875 C 178.574219 241.496094 178.972656 241.566406 179.371094 241.640625 C 179.867188 241.761719 180.363281 241.980469 180.863281 241.992188 C 201.707031 242.394531 222.550781 242.777344 243.394531 243.160156 C 244.871094 243.238281 246.34375 243.320312 247.820312 243.398438 L 247.988281 243.515625 L 248.175781 243.445312 C 249.722656 243.59375 251.269531 243.746094 252.8125 243.894531 C 253.21875 243.980469 253.621094 244.066406 254.023438 244.152344 C 255.703125 244.332031 257.386719 244.511719 259.066406 244.691406 L 259.058594 244.664062 C 260.324219 244.824219 261.585938 244.984375 262.851562 245.148438 C 263.257812 245.226562 263.667969 245.300781 264.074219 245.382812 C 269.949219 246.347656 275.824219 247.3125 281.703125 248.277344 C 282.214844 248.335938 282.726562 248.394531 283.242188 248.453125 C 288.976562 250.136719 294.707031 251.820312 300.441406 253.503906 L 300.445312 253.472656 C 301.304688 253.871094 302.164062 254.265625 303.023438 254.664062 C 307.171875 256.761719 311.324219 258.863281 315.472656 260.964844 C 315.703125 261.199219 315.933594 261.433594 316.164062 261.667969 C 316.589844 262.257812 317.019531 262.851562 317.449219 263.441406 C 317.503906 264.0625 317.554688 264.683594 317.609375 265.304688 C 317.542969 265.511719 317.480469 265.722656 317.414062 265.933594 C 317.015625 266.09375 316.617188 266.257812 316.214844 266.421875 C 315.8125 266.253906 315.410156 266.089844 315.007812 265.921875 C 314.355469 265.351562 313.703125 264.78125 313.046875 264.210938 C 312.65625 264.125 312.265625 264.039062 311.871094 263.953125 C 311.878906 263.769531 311.832031 263.601562 311.730469 263.445312 C 309.867188 262.457031 308.007812 261.46875 306.148438 260.476562 C 305.757812 260.292969 305.367188 260.109375 304.976562 259.925781 C 299.519531 257.890625 294.066406 255.855469 288.609375 253.824219 C 287.8125 253.664062 287.015625 253.507812 286.21875 253.351562 C 285.128906 253.152344 284.039062 252.957031 282.949219 252.757812 C 282.753906 252.710938 282.5625 252.664062 282.371094 252.617188 C 280.480469 252.277344 278.589844 251.941406 276.695312 251.601562 C 276.292969 251.527344 275.890625 251.449219 275.488281 251.371094 C 271.703125 250.789062 267.917969 250.207031 264.132812 249.625 C 263.992188 249.476562 263.835938 249.453125 263.65625 249.550781 C 258.796875 248.96875 253.9375 248.382812 249.078125 247.800781 C 248.472656 247.734375 247.867188 247.664062 247.265625 247.597656 C 246.773438 247.472656 246.285156 247.25 245.792969 247.242188 C 228.273438 246.972656 210.753906 246.722656 193.230469 246.46875 L 191.355469 246.429688 C 183.410156 245.46875 175.460938 244.507812 167.515625 243.546875 C 167.144531 243.46875 166.773438 243.390625 166.40625 243.308594 C 165.105469 242.925781 163.804688 242.542969 162.5 242.160156 C 162.375 242.019531 162.222656 241.980469 162.042969 242.046875 C 159.140625 240.953125 156.085938 240.144531 153.351562 238.71875 C 142.960938 233.304688 132.675781 227.695312 122.347656 222.15625 C 122.246094 222.003906 122.105469 221.9375 121.921875 221.957031 C 110.019531 213.261719 96.261719 209.0625 82.199219 205.617188 L 82.054688 205.535156 L 81.933594 205.648438 C 78.675781 204.894531 75.417969 204.140625 72.15625 203.386719 Z M 72.15625 203.390625 " fill-opacity="1" fill-rule="nonzero"/></g></g><g clip-path="url(#f47211cfdb)"><g clip-path="url(#bb9b552b56)"><path fill="#d46927" d="M 276.679688 264.175781 C 275.738281 263.90625 274.800781 263.636719 273.859375 263.363281 C 271.246094 262.980469 268.628906 262.59375 266.015625 262.207031 L 265.074219 262.121094 C 263.089844 261.9375 261.101562 261.757812 259.113281 261.578125 C 258.519531 261.511719 257.921875 261.441406 257.324219 261.375 C 255.898438 261.226562 254.46875 260.957031 253.042969 260.953125 C 240.472656 260.941406 227.90625 260.957031 215.335938 261.011719 C 212.976562 261.023438 210.613281 261.253906 208.253906 261.382812 L 206.40625 261.335938 C 195.953125 260.785156 185.5 260.230469 175.050781 259.675781 C 174.734375 259.652344 174.421875 259.628906 174.109375 259.605469 C 170.875 259.03125 167.640625 258.453125 164.40625 257.882812 C 164.015625 257.769531 163.625 257.660156 163.238281 257.546875 C 158.183594 256.175781 153.128906 254.804688 148.070312 253.4375 C 147.980469 253.289062 147.855469 253.253906 147.699219 253.320312 C 146.804688 253.003906 145.90625 252.683594 145.011719 252.367188 C 144.675781 252.265625 144.339844 252.164062 144.007812 252.058594 C 137.203125 249.199219 130.402344 246.339844 123.601562 243.476562 C 123.460938 243.332031 123.292969 243.277344 123.09375 243.3125 C 118.253906 240.820312 113.410156 238.324219 108.570312 235.828125 C 107.347656 235.09375 106.128906 234.355469 104.910156 233.617188 L 104.222656 233.304688 C 103.996094 233.148438 103.769531 232.988281 103.542969 232.828125 C 103.375 232.707031 103.191406 232.652344 102.984375 232.671875 C 102.753906 232.519531 102.523438 232.363281 102.289062 232.207031 C 102.160156 232.070312 102 232.003906 101.808594 232.007812 C 101.550781 231.839844 101.289062 231.671875 101.03125 231.503906 C 99.601562 230.84375 98.175781 230.179688 96.75 229.519531 C 96.507812 229.386719 96.265625 229.25 96.027344 229.113281 C 94.167969 228.417969 92.3125 227.71875 90.453125 227.023438 L 89.757812 226.617188 C 89.335938 226.527344 88.917969 226.441406 88.496094 226.351562 C 87.648438 226.019531 86.800781 225.6875 85.953125 225.355469 C 85.542969 225.28125 85.132812 225.207031 84.722656 225.132812 C 84.089844 224.945312 83.457031 224.757812 82.824219 224.570312 C 82.722656 224.433594 82.597656 224.398438 82.4375 224.460938 C 81.109375 224.105469 79.78125 223.746094 78.449219 223.386719 C 78.234375 223.390625 78.019531 223.390625 77.804688 223.390625 C 73.03125 222.667969 68.253906 221.949219 63.480469 221.226562 C 63.511719 221.042969 63.449219 220.902344 63.296875 220.796875 C 62.921875 220.667969 62.542969 220.535156 62.167969 220.40625 C 61.320312 220.308594 60.472656 220.207031 59.625 220.109375 C 58.996094 219.964844 58.371094 219.820312 57.746094 219.679688 C 56.921875 219.617188 56.101562 219.558594 55.277344 219.5 C 48.75 219.496094 42.21875 219.492188 35.691406 219.488281 C 34.46875 219.589844 33.25 219.691406 32.027344 219.789062 C 31.234375 219.644531 30.441406 219.496094 29.652344 219.351562 L 29.550781 219.511719 L 29.667969 219.367188 C 29.585938 218.582031 29.507812 217.796875 29.425781 217.011719 C 29.546875 216.898438 29.597656 216.761719 29.578125 216.597656 C 30.882812 216.3125 32.175781 215.839844 33.492188 215.773438 C 39.6875 215.46875 45.890625 215.277344 52.089844 215.046875 C 52.71875 215.085938 53.347656 215.128906 53.972656 215.167969 C 54.8125 215.320312 55.652344 215.46875 56.492188 215.621094 C 68.582031 217.328125 80.625 219.285156 92.238281 223.242188 L 92.410156 223.382812 L 92.628906 223.375 C 93.71875 223.800781 94.8125 224.226562 95.902344 224.652344 C 101.375 227.5 106.84375 230.347656 112.316406 233.199219 C 112.433594 233.347656 112.589844 233.410156 112.78125 233.390625 C 128.5 242.148438 144.898438 249.210938 162.503906 253.246094 C 163.074219 253.320312 163.640625 253.394531 164.210938 253.46875 C 173.972656 254.695312 183.710938 256.738281 193.496094 256.988281 C 214.519531 257.519531 235.566406 257.128906 256.605469 257.117188 C 257.160156 257.15625 257.71875 257.195312 258.273438 257.234375 C 263.15625 257.800781 268.035156 258.363281 272.917969 258.925781 L 274.742188 259.171875 C 280.59375 260.449219 286.445312 261.722656 292.296875 262.996094 C 293.042969 263.171875 293.789062 263.347656 294.535156 263.519531 C 298.183594 264.78125 301.828125 266.039062 305.476562 267.300781 L 305.457031 267.28125 C 307.980469 268.746094 310.503906 270.214844 313.03125 271.683594 C 312.554688 273.824219 310.75 273.359375 309.300781 273.589844 C 307.191406 272.722656 305.078125 271.855469 302.96875 270.988281 C 302.570312 270.78125 302.175781 270.574219 301.777344 270.367188 C 301.160156 270.144531 300.539062 269.925781 299.917969 269.703125 C 299.285156 269.484375 298.65625 269.265625 298.023438 269.046875 C 297.410156 268.84375 296.796875 268.640625 296.179688 268.4375 C 295.964844 268.332031 295.746094 268.226562 295.527344 268.121094 C 295.097656 268.035156 294.664062 267.949219 294.234375 267.863281 C 293.8125 267.699219 293.390625 267.535156 292.96875 267.371094 C 290.804688 266.859375 288.636719 266.34375 286.46875 265.828125 C 286.140625 265.703125 285.8125 265.582031 285.484375 265.457031 C 285.070312 265.382812 284.65625 265.304688 284.242188 265.230469 C 282.566406 264.875 280.886719 264.515625 279.207031 264.160156 C 278.363281 264.164062 277.519531 264.171875 276.675781 264.179688 Z M 276.679688 264.175781 " fill-opacity="1" fill-rule="nonzero"/></g></g><g clip-path="url(#b861f6e574)"><g clip-path="url(#8897ee64bf)"><path fill="#d46927" d="M 110.222656 325.039062 C 110.023438 325.019531 109.902344 325.109375 109.855469 325.304688 C 109.394531 325.574219 108.929688 325.84375 108.46875 326.109375 L 108.484375 326.082031 C 106.589844 327.5625 104.695312 329.042969 102.800781 330.523438 C 102.59375 330.667969 102.390625 330.808594 102.183594 330.953125 C 101.238281 330.585938 100.289062 330.21875 99.34375 329.855469 C 99.328125 329.488281 99.3125 329.117188 99.296875 328.75 C 100.980469 327.082031 102.664062 325.410156 104.351562 323.742188 C 104.710938 323.519531 105.070312 323.292969 105.429688 323.070312 C 106.472656 322.433594 107.515625 321.800781 108.558594 321.164062 L 108.554688 321.167969 C 113.015625 319.097656 117.472656 317.03125 121.933594 314.964844 C 129.835938 312.875 137.742188 310.785156 145.644531 308.695312 L 145.679688 308.765625 C 160.214844 307.101562 174.75 307.191406 189.285156 308.828125 L 189.300781 308.882812 C 211.914062 312.242188 233.730469 318.882812 255.660156 325.03125 C 267.972656 328.484375 280.554688 330.171875 293.265625 331.027344 C 295.535156 331.179688 297.84375 330.867188 300.121094 330.636719 C 302.003906 330.449219 303.289062 330.742188 302.960938 333.054688 C 302.753906 333.214844 302.546875 333.378906 302.339844 333.542969 C 300.894531 333.835938 299.453125 334.128906 298.011719 334.421875 C 293.828125 334.40625 289.648438 334.394531 285.46875 334.378906 C 284.746094 334.328125 284.027344 334.277344 283.308594 334.222656 C 282.785156 334.113281 282.261719 334 281.742188 333.886719 C 281.097656 333.855469 280.457031 333.824219 279.816406 333.789062 C 277.515625 333.570312 275.214844 333.347656 272.917969 333.125 C 271.847656 332.902344 270.777344 332.683594 269.707031 332.464844 C 268.261719 332.085938 266.820312 331.707031 265.375 331.328125 C 264.796875 331.265625 264.21875 331.203125 263.636719 331.140625 C 263.398438 331.050781 263.160156 330.957031 262.917969 330.867188 C 262.289062 330.726562 261.660156 330.589844 261.03125 330.449219 C 259.355469 330.054688 257.683594 329.664062 256.007812 329.269531 L 256.019531 329.277344 C 255.589844 329.117188 255.164062 328.960938 254.734375 328.800781 C 254.503906 328.769531 254.269531 328.738281 254.039062 328.710938 C 253.652344 328.582031 253.269531 328.453125 252.882812 328.324219 C 251.632812 328.019531 250.382812 327.714844 249.128906 327.410156 C 248.703125 327.261719 248.277344 327.117188 247.847656 326.972656 C 247.4375 326.875 247.023438 326.78125 246.609375 326.6875 C 246.175781 326.550781 245.742188 326.414062 245.308594 326.277344 C 245.132812 326.167969 244.941406 326.125 244.738281 326.15625 C 244.097656 325.972656 243.457031 325.789062 242.816406 325.605469 C 242 325.367188 241.179688 325.132812 240.363281 324.894531 C 239.085938 324.515625 237.804688 324.140625 236.523438 323.765625 C 236.363281 323.644531 236.183594 323.597656 235.988281 323.628906 C 235.335938 323.453125 234.683594 323.277344 234.03125 323.105469 C 233.199219 322.871094 232.367188 322.636719 231.53125 322.402344 C 230.683594 322.164062 229.832031 321.925781 228.984375 321.6875 C 228.359375 321.511719 227.738281 321.335938 227.113281 321.160156 C 226.492188 320.976562 225.871094 320.792969 225.25 320.609375 C 224.9375 320.539062 224.621094 320.46875 224.308594 320.398438 C 223.992188 320.273438 223.679688 320.152344 223.363281 320.027344 C 221.304688 319.550781 219.242188 319.078125 217.183594 318.601562 C 216.527344 318.433594 215.867188 318.265625 215.210938 318.097656 C 214.175781 317.855469 213.136719 317.617188 212.101562 317.378906 C 210.207031 316.960938 208.316406 316.542969 206.421875 316.125 L 206.429688 316.128906 C 203.5 315.53125 200.574219 314.933594 197.644531 314.335938 C 193.519531 313.890625 189.394531 313.464844 185.277344 312.980469 C 184.601562 312.902344 183.957031 312.554688 183.296875 312.332031 C 179.332031 312.074219 175.367188 311.816406 171.40625 311.558594 C 168.445312 311.574219 165.488281 311.589844 162.53125 311.605469 C 158.726562 311.847656 154.921875 312.089844 151.117188 312.332031 C 146.957031 312.996094 142.800781 313.664062 138.644531 314.328125 C 138.003906 314.5 137.363281 314.667969 136.722656 314.839844 L 136.742188 314.820312 C 133.773438 315.65625 130.800781 316.492188 127.828125 317.324219 L 127.582031 317.3125 L 127.375 317.4375 C 126.304688 317.832031 125.238281 318.230469 124.171875 318.625 L 123.878906 318.625 L 123.609375 318.734375 C 120.859375 319.929688 118.105469 321.128906 115.355469 322.324219 L 115.363281 322.292969 C 114.515625 322.734375 113.664062 323.171875 112.8125 323.613281 C 112.625 323.597656 112.460938 323.65625 112.316406 323.78125 C 111.621094 324.199219 110.921875 324.617188 110.222656 325.039062 Z M 110.222656 325.039062 " fill-opacity="1" fill-rule="nonzero"/></g></g><g clip-path="url(#3d965d7899)"><g clip-path="url(#d0c4ccfd5c)"><path fill="#d46927" d="M 141.925781 322.46875 C 142.105469 322.53125 142.273438 322.503906 142.425781 322.394531 C 143.320312 322.21875 144.214844 322.042969 145.109375 321.867188 C 145.683594 321.804688 146.257812 321.742188 146.832031 321.679688 L 149.355469 321.179688 L 149.339844 321.183594 C 158.953125 321.179688 168.566406 321.175781 178.179688 321.171875 L 178.171875 321.167969 C 180.890625 321.59375 183.605469 322.015625 186.324219 322.441406 L 186.3125 322.433594 C 187.152344 322.613281 187.992188 322.789062 188.835938 322.96875 C 189.871094 323.207031 190.910156 323.445312 191.949219 323.6875 C 193.625 324.113281 195.300781 324.542969 196.976562 324.972656 L 196.960938 324.957031 C 197.597656 325.132812 198.234375 325.304688 198.875 325.480469 C 201.535156 326.15625 204.199219 326.832031 206.859375 327.507812 C 207.332031 327.644531 207.804688 327.78125 208.277344 327.917969 C 209.125 328.117188 209.976562 328.316406 210.824219 328.515625 L 211.117188 328.625 L 211.425781 328.578125 L 212.050781 328.691406 C 213.9375 329.082031 215.828125 329.472656 217.714844 329.863281 C 217.90625 329.945312 218.101562 329.976562 218.308594 329.953125 C 221.03125 330.378906 223.75 330.804688 226.472656 331.230469 L 226.457031 331.222656 C 228.753906 331.535156 231.050781 331.851562 233.347656 332.171875 C 235.011719 332.273438 236.675781 332.378906 238.339844 332.484375 C 241.496094 332.675781 244.65625 332.871094 247.816406 333.0625 C 248.171875 333.101562 248.53125 333.140625 248.886719 333.179688 C 249.132812 333.21875 249.375 333.261719 249.621094 333.300781 C 250.289062 333.355469 250.957031 333.40625 251.625 333.460938 C 252.234375 333.5 252.84375 333.539062 253.457031 333.578125 C 256.148438 333.632812 258.84375 333.6875 261.539062 333.742188 C 263.480469 334.351562 265.425781 334.960938 267.371094 335.566406 C 267.105469 335.949219 266.84375 336.328125 266.582031 336.707031 C 265.128906 336.941406 263.675781 337.175781 262.222656 337.410156 C 260.769531 337.445312 259.316406 337.476562 257.863281 337.511719 C 252.847656 337.320312 247.828125 337.128906 242.8125 336.9375 C 241.769531 336.886719 240.722656 336.835938 239.675781 336.785156 C 237.375 336.574219 235.070312 336.363281 232.769531 336.15625 L 232.589844 336.046875 L 232.390625 336.121094 C 227.925781 335.515625 223.457031 334.910156 218.992188 334.308594 L 218.976562 334.304688 C 218.355469 334.171875 217.734375 334.035156 217.113281 333.902344 C 214.609375 333.589844 212.109375 333.277344 209.609375 332.964844 C 209.613281 332.765625 209.539062 332.601562 209.386719 332.46875 C 207.980469 332.085938 206.574219 331.699219 205.167969 331.316406 C 203.285156 330.859375 201.398438 330.402344 199.511719 329.941406 L 195.738281 328.851562 C 195.339844 328.789062 194.941406 328.730469 194.542969 328.667969 C 186.175781 325.910156 177.542969 324.71875 168.769531 324.394531 C 166.46875 324.371094 164.167969 324.347656 161.863281 324.328125 C 159.335938 324.507812 156.808594 324.6875 154.28125 324.867188 L 154.289062 324.828125 C 149.4375 325.671875 144.589844 326.519531 139.738281 327.363281 C 139.570312 327.296875 139.421875 327.328125 139.289062 327.453125 C 137.796875 327.835938 136.304688 328.21875 134.808594 328.601562 L 134.808594 328.5625 C 133.355469 329.011719 131.898438 329.464844 130.441406 329.914062 C 130.242188 329.890625 130.058594 329.929688 129.882812 330.023438 C 127.585938 330.835938 125.292969 331.644531 122.996094 332.457031 L 122.277344 332.933594 C 120.761719 333.199219 119.242188 333.464844 117.726562 333.730469 C 116.648438 331.722656 117.363281 330.449219 119.347656 329.636719 C 121.027344 328.949219 122.6875 328.203125 124.355469 327.480469 C 124.539062 327.515625 124.703125 327.476562 124.855469 327.367188 L 132.007812 325.015625 C 132.160156 325.070312 132.285156 325.035156 132.386719 324.90625 C 133.855469 324.492188 135.320312 324.082031 136.789062 323.667969 C 138.042969 323.417969 139.300781 323.167969 140.558594 322.917969 C 141.015625 322.769531 141.46875 322.621094 141.925781 322.46875 Z M 141.925781 322.46875 " fill-opacity="1" fill-rule="nonzero"/></g></g><g fill="#434336" fill-opacity="1"><g transform="translate(78.012092, 131.068537)"><g><path d="M -23.515625 -13.015625 L -17.78125 -26.1875 L -15.71875 -25.296875 L -20.46875 -14.375 L -11.515625 -10.46875 L -7.453125 -19.8125 L -5.4375 -18.9375 L -9.5 -9.59375 L 2 -4.578125 L 1.015625 -2.328125 Z M -23.515625 -13.015625 "/></g></g></g><g fill="#434336" fill-opacity="1"><g transform="translate(88.079155, 109.265314)"><g><path d="M -16.640625 -23.03125 L -14.546875 -25.875 L 11.8125 -16.078125 L 10.21875 -13.9375 L 3.5625 -16.4375 L -2.21875 -8.578125 L 2.171875 -2.953125 L 0.59375 -0.8125 Z M -13.40625 -22.8125 L -3.65625 -10.375 L 1.375 -17.234375 Z M -13.40625 -22.8125 "/></g></g></g><g fill="#434336" fill-opacity="1"><g transform="translate(104.967736, 87.765285)"><g><path d="M -8.5 -25.109375 L 7.578125 -6.59375 L 5.71875 -4.96875 L -10.359375 -23.484375 L -15.484375 -19.03125 L -16.9375 -20.71875 L -4.796875 -31.265625 L -3.34375 -29.578125 Z M -8.5 -25.109375 "/></g></g></g><g fill="#434336" fill-opacity="1"><g transform="translate(124.047455, 72.509362)"><g><path d="M -9.453125 -25.5625 L 4.421875 -2.6875 L 2.3125 -1.40625 L -11.5625 -24.28125 Z M -9.453125 -25.5625 "/></g></g></g><g fill="#434336" fill-opacity="1"><g transform="translate(136.247372, 64.704743)"><g><path d="M 14 -28.6875 L 14.0625 -4.90625 L 11.953125 -4.171875 L -2.796875 -22.828125 L -0.71875 -17.21875 L 4.71875 -1.640625 L 2.390625 -0.828125 L -6.421875 -26.078125 L -3.140625 -27.234375 L 11.609375 -8.5625 L 11.5625 -32.359375 L 14.828125 -33.5 L 23.640625 -8.25 L 21.296875 -7.4375 L 15.859375 -23.015625 Z M 14 -28.6875 "/></g></g></g><g fill="#434336" fill-opacity="1"><g transform="translate(168.375828, 54.799444)"><g><path d="M 6.734375 -27.59375 L 10.25 -27.84375 L 19.90625 -1.453125 L 17.234375 -1.265625 L 14.8125 -7.96875 L 5.078125 -7.25 L 3.65625 -0.265625 L 1 -0.078125 Z M 8.640625 -25.015625 L 5.53125 -9.515625 L 14.015625 -10.140625 Z M 8.640625 -25.015625 "/></g></g></g><g fill="#434336" fill-opacity="1"><g transform="translate(196.003604, 54.007859)"><g/></g></g><g fill="#434336" fill-opacity="1"><g transform="translate(209.527307, 55.335799)"><g><path d="M 26.90625 -19.859375 L 19.21875 5.765625 L 16.65625 5 L 11.015625 -20.25 L 9.375 -14.265625 L 4.671875 1.40625 L 2.421875 0.734375 L 10.109375 -24.890625 L 12.6875 -24.125 L 18.28125 1.109375 L 19.96875 -4.859375 L 24.671875 -20.53125 Z M 26.90625 -19.859375 "/></g></g></g><g fill="#434336" fill-opacity="1"><g transform="translate(236.905243, 64.439524)"><g><path d="M 21.25 -18.828125 L 24.296875 -17.03125 L 17.171875 10.15625 L 14.875 8.796875 L 16.703125 1.90625 L 8.296875 -3.0625 L 3.15625 1.875 L 0.859375 0.515625 Z M 21.375 -15.609375 L 9.96875 -4.671875 L 17.296875 -0.34375 Z M 21.375 -15.609375 "/></g></g></g><g fill="#434336" fill-opacity="1"><g transform="translate(259.994042, 78.879762)"><g><path d="M 7.671875 8.046875 C 5.492188 5.910156 4.570312 3.570312 4.90625 1.03125 C 5.25 -1.5 7.035156 -4.410156 10.265625 -7.703125 L 11.234375 -8.6875 C 14.484375 -12 17.363281 -13.84375 19.875 -14.21875 C 22.394531 -14.601562 24.742188 -13.726562 26.921875 -11.59375 C 29.109375 -9.457031 30.035156 -7.125 29.703125 -4.59375 C 29.378906 -2.070312 27.59375 0.84375 24.34375 4.15625 L 23.375 5.140625 C 20.914062 7.648438 18.664062 9.304688 16.625 10.109375 C 14.59375 10.921875 12.691406 10.972656 10.921875 10.265625 L 9.328125 13.953125 L 7.71875 12.375 L 9.109375 9.25 C 8.859375 9.0625 8.613281 8.867188 8.375 8.671875 C 8.132812 8.472656 7.898438 8.265625 7.671875 8.046875 Z M 14.078125 2.9375 L 11.828125 8.125 C 13.140625 8.550781 14.585938 8.375 16.171875 7.59375 C 17.765625 6.820312 19.5625 5.414062 21.5625 3.375 L 22.53125 2.390625 C 25.207031 -0.335938 26.765625 -2.679688 27.203125 -4.640625 C 27.648438 -6.597656 27.070312 -8.359375 25.46875 -9.921875 L 25.3125 -10.09375 C 23.695312 -11.664062 21.921875 -12.207031 19.984375 -11.71875 C 18.046875 -11.226562 15.738281 -9.617188 13.0625 -6.890625 L 12.09375 -5.90625 C 9.445312 -3.195312 7.894531 -0.867188 7.4375 1.078125 C 6.976562 3.035156 7.554688 4.800781 9.171875 6.375 L 9.328125 6.546875 C 9.441406 6.648438 9.550781 6.753906 9.65625 6.859375 C 9.769531 6.972656 9.890625 7.078125 10.015625 7.171875 L 12.546875 1.453125 Z M 14.078125 2.9375 "/></g></g></g><g fill="#434336" fill-opacity="1"><g transform="translate(279.774262, 99.425253)"><g><path d="M 6.21875 10.5625 L 4.359375 7.546875 L 23.28125 -13.234375 L 24.6875 -10.953125 L 7.578125 7.609375 L 31.84375 0.609375 L 33.25 2.890625 Z M 6.21875 10.5625 "/></g></g></g><g fill="#434336" fill-opacity="1"><g transform="translate(293.270576, 123.507794)"><g><path d="M 26.796875 -4.890625 L 1.875 4.8125 L 0.984375 2.515625 L 25.90625 -7.1875 Z M 26.796875 -4.890625 "/></g></g></g></svg>